<svg xmlns="http://www.w3.org/2000/svg" aria-hidden="true" style="position:absolute;width:0;height:0;overflow:hidden">
  <defs>
    <symbol id="icon-instagram-logo-1" viewBox="0 0 32 32">
      <path fill="#ffd4e4" d="M18.343 14.701c-.445-.925-1.877-2.003-2.797-1.242-1.329.006-2.108 1.543-2.033 2.827.114 1.974 2.277 2.76 3.948 2.077 1.502-.613 1.486-2.408.882-3.663zm-2.032 3.224c.213-.032.427-.096.633-.19.023.02.048.036.073.053a2.12 2.12 0 0 1-.706.138zm6.389-7.427a8.792 8.792 0 0 0-.031-.955c-.014-.195-.152-.357-.358-.358-.398-.001-1.678-.156-2.115.211-.122-.134-.384-.087-.4.147-.06.913-.102 1.825-.108 2.74-.001.143.103.297.249.327.184.038.377.067.569.083a.301.301 0 0 0 .048.06c.448.425 1.327.101 1.849.019.114-.018.218-.137.244-.244.161-.652.198-1.371.052-2.031z" style="fill:var(--color1, #ffd4e4)"/>
      <path fill="#ffd4e4" d="M23.126 15.328a.383.383 0 0 0-.341-.337c.205-.215.016-.671-.352-.583a3.65 3.65 0 0 1-1.564.022c-.191-.038-.326.087-.364.232a.333.333 0 0 0-.062.306c.825 3.155-.863 5.72-4.199 5.782-3.133.058-5.137-2.333-4.5-5.374.022-.106.009-.247-.085-.32l-.027-.025a.328.328 0 0 0-.044-.396c-.01-.011-.023-.02-.034-.03a.648.648 0 0 0 .05-.189c.013-.137-.125-.253-.253-.253a.793.793 0 0 0-.358.094.372.372 0 0 0-.098-.028c-.679-.089-1.303.107-1.979.158-.18.014-.335.141-.334.334.006 1.015.011 2.03.019 3.044a.283.283 0 0 0 .046.164c.03 1.455.471 2.983 1.078 3.945 1.26 1.996 4.256 1.837 6.319 1.953 1.762.1 5.536.58 6.604-1.31 1.086-1.922.729-5.089.478-7.187zm-1.938 5.684-.016-.016c.093-.335.172-.673.237-1.015l.052-.136a10.3 10.3 0 0 1-.026.185c-.087.326-.169.654-.247.982zm-.697 1.952c.163-.085.319-.188.465-.315l.045.015a.364.364 0 0 0 .104.017c.022.031.05.057.081.079a3.47 3.47 0 0 1-.743.273.29.29 0 0 0 .048-.068zM11.11 15.2a6.21 6.21 0 0 0-.118.505 5.808 5.808 0 0 0-.039-.323.343.343 0 0 0 .079-.271c.036.009.071.02.104.033-.009.018-.02.034-.026.055zm4.97 7.915.717-.048c0 .027.002.052.007.078-.146-.008-.286-.016-.417-.021l-.307-.01z" style="fill:var(--color1, #ffd4e4)"/>
      <path fill="#ffd4e4" d="M27.328 5.11c-1.723-2.168-4.061-3.828-6.71-4.641-2.716-.834-5.82-.449-8.503.323-5.336 1.537-9.424 5.792-10.86 11.127a15.168 15.168 0 0 0-.395 5.974c0 .008-.003.014-.003.023.036.434.116.844.222 1.24.54 2.467 1.678 4.806 3.312 6.897 2.822 3.612 7.68 6.662 12.384 5.557-.003.23.179.462.459.369 5.621-1.862 10.795-5.073 13.053-10.79 2.156-5.457.599-11.6-2.96-16.079zM1.497 17.641a13.42 13.42 0 0 1-.088-1.233l.018.123c.023.384.065.765.114 1.142l-.044-.032zm1.597-1.928c-.018.062-.035.123-.054.184-.005-.121-.01-.241-.011-.362l.068-.24c-.003.139-.004.279-.003.418zm12.35 13.486-.697-.137c.234.02.468.046.701.069-.005.023-.004.046-.005.069zm9.228-1.923c.132-.052.263-.109.393-.17-.108.087-.214.177-.324.262a.414.414 0 0 0-.068-.092zM16.724 5.945c.136.006.272.015.407.026l-.001.003c-.297.015-.594.036-.891.064.162-.029.323-.061.484-.093zM5.191 22.908c-.069-.235-.137-.471-.209-.705.119.28.243.557.371.833l-.163-.128zm.74-13.861c-.052.037-.106.073-.159.109a.343.343 0 0 0-.072-.047c.12-.107.235-.218.352-.329a5.868 5.868 0 0 0-.121.267zm.708 11.675.006-.357c.01.017.017.035.027.052.005.008.01.011.016.018.028.196.064.39.105.582l-.154-.295zm1.884 2.41c-1.578-1.646-1.289-4.557-1.157-6.63.133-2.081.464-4.246.135-6.326.038-.102.087-.194.135-.287.235-.266.454-.544.649-.838 1.426-1.256 4.079-1.298 5.774-1.355 2.416-.081 5.009-.317 7.386.174 2.884.595 3.429 3.192 3.396 5.783-.034 2.681.096 5.485-.637 8.088-.935 3.318-4.428 3.215-7.297 3.176-1.5-.02-2.998-.144-4.49-.289-1.457-.142-2.843-.399-3.894-1.496zm4.479 7.724c.651.093 1.303.171 1.958.239a11.078 11.078 0 0 1-1.958-.239z" style="fill:var(--color1, #ffd4e4)"/>
    </symbol>
    <symbol id="icon-bottom" viewBox="0 0 28 32">
      <path fill="#fda3c4" d="m7.806 28.681-1.788-.475-5.275-3.979c-.445-.905-.984-3.185.42-5.065 1.755-2.35 3.625-5.341 5.932-7.79s4.634-5.128 5.427-6.005c.793-.878 3.852-4.569 5.674-5.052 1.458-.386 3.417-.202 4.214-.062.02.182.225.589.882.762s1.465.662 1.787.885c.062.273.227.854.393.997.208.179-.492 1.056.143.864.508-.153 1.189.286 1.466.525-.033.547-.221 1.799-.714 2.426s-.777 1.303-.858 1.562l.415.359c.32-.217.93-.579.812-.286-.147.367-.657.42-.71.785s-.034.958.32.77a.691.691 0 0 0 .382-.103c.058-.113.127-.23.181-.315a.396.396 0 0 1-.181.315c-.098.192-.165.374-.07.372.15-.002.542-.19.719-.284l.52.038-.668.739c-.367.406.019.592.258.634-.063.138-.268.46-.584.647-.396.234-.115.23-.564.829-.359.479-1.847 2.078-2.547 2.818-.014-.121-.116-.281-.416.052-.376.416-.417.462-.773 1.06s-3.674 4.065-5.093 5.636l-2.046 2.264c-.481.873-1.696 2.878-2.706 3.914-1.263 1.295-2.825 2.002-2.877 1.957-.041-.036-.551-.037-.801-.034.198-.049.542-.19.334-.37s-1.036-.456-1.424-.572l-.185-.818zm3.751 1.677c-.134.148.068.333.186.407l-.219.345c.041.296.137.85.196.704s.137-.458.168-.595c-.014-.121.227-.66 1.295-1.842 1.336-1.478 1.107-1.429 1.232-1.568s-2.691 2.364-2.858 2.549z" style="fill:var(--color2, #fda3c4)"/>
    </symbol>
    <symbol id="icon-btn-pink" viewBox="0 0 115 32">
      <path fill="#fda3c4" d="m3.423 22.467-2.194-3.131L.018 6.811C1.078 5.028 4.777 1.357 11.095.94 18.993.418 22.647-.11 31.724.021s48.072.262 51.265.262 19.012-.391 23.22 1.566c3.366 1.566 6.456 4.566 7.58 5.871-.335.261-.804 1.07.006 2.218s1.241 2.914 1.355 3.653c-.447.435-1.341 1.409-1.34 1.827.001.522-3.024.652-1.509 1.305 1.212.522 1.518 2.044 1.52 2.74-1.175.652-4.062 1.983-6.213 2.087s-4.033.565-4.705.783l.003 1.044c1.009.174 2.825.574 2.019.783-1.008.261-2.019-.391-2.858 0s-2.014 1.174-1.005 1.435c.31.24.614.36.886.407.333-.062.694-.114.964-.146-.172.107-.527.221-.964.146-.566.106-1.053.244-.883.376.269.209 1.346.522 1.85.652l.843.783h-2.689c-1.479 0-1.174.783-.838 1.174-.392.087-1.411.209-2.353 0-1.178-.261-.672.13-2.689.261-1.613.104-10.385.043-13.131 0 .223-.174.368-.522-.842-.522-1.512 0-1.681 0-3.529.261s-44.205-.262-49.92-.262c-4.572 0 1.238-.646.398-.646-2.632.435-11.749 1.279-15.649 1.174-4.875-.131-9.08-1.435-9.081-1.566 0-.104-.899-.826-1.348-1.174.449.217 1.346.522 1.345 0s-.902-2.044-1.352-2.74l1.341-1.305zm3.213 7.437c-.538 0-.559.522-.502.783l-1.092.131c-.531.435-1.492 1.279-1.089 1.174s1.176-.391 1.511-.522c.224-.174 1.747-.522 6.05-.522 5.379 0 4.874-.261 5.378-.261s-9.583-.783-10.255-.783z" style="fill:var(--color2, #fda3c4)"/>
    </symbol>
    <symbol id="icon-button-red" viewBox="0 0 115 32">
      <path fill="#f40000" d="m3.423 22.467-2.194-3.131L.018 6.811C1.078 5.028 4.777 1.357 11.095.94 18.993.418 22.647-.11 31.724.021s48.072.262 51.265.262 19.012-.391 23.22 1.566c3.366 1.566 6.456 4.566 7.58 5.871-.335.261-.804 1.07.006 2.218s1.241 2.914 1.355 3.653c-.447.435-1.341 1.409-1.34 1.827.001.522-3.024.652-1.509 1.305 1.212.522 1.518 2.044 1.52 2.74-1.175.652-4.062 1.983-6.213 2.087s-4.033.565-4.705.783l.003 1.044c1.009.174 2.825.574 2.019.783-1.008.261-2.019-.391-2.858 0s-2.014 1.174-1.005 1.435c.31.24.614.36.886.407.333-.062.694-.114.964-.146-.172.107-.527.221-.964.146-.566.106-1.053.244-.883.376.269.209 1.346.522 1.85.652l.843.783h-2.689c-1.479 0-1.174.783-.838 1.174-.392.087-1.411.209-2.353 0-1.178-.261-.672.13-2.689.261-1.613.104-10.385.043-13.131 0 .223-.174.368-.522-.842-.522-1.512 0-1.681 0-3.529.261s-44.205-.262-49.92-.262c-4.572 0 1.238-.646.398-.646-2.632.435-11.749 1.279-15.649 1.174-4.875-.131-9.08-1.435-9.081-1.566 0-.104-.899-.826-1.348-1.174.449.217 1.346.522 1.345 0s-.902-2.044-1.352-2.74l1.341-1.305zm3.213 7.437c-.538 0-.559.522-.502.783l-1.092.131c-.531.435-1.492 1.279-1.089 1.174s1.176-.391 1.511-.522c.224-.174 1.747-.522 6.05-.522 5.379 0 4.874-.261 5.378-.261s-9.583-.783-10.255-.783z" style="fill:var(--color3, #f40000)"/>
    </symbol>
    <symbol id="icon-cat" viewBox="0 0 26 32">
      <path fill="#fda3c4" d="m8.69 24.3-2.903 2.869c0 .581 1.355 3.096 2.516 3.096.929 0 .645-1.548.387-2.322l2.129-2.129L8.69 24.3zm4.644.934 1.874-2.989 2.892 1.218-2.25 2.351c.258.71.503 2.206-.581 2.516s-1.742-1.935-1.935-3.096zm-1.161-8.902c-.155-.155-1.742 1.871-2.516 2.903-.194.323-.581 1.122-.581 1.742s2.193 1.161 3.29 1.355l2.322-1.355c-.387-.387-1.122-1.316-.968-1.935s1.484-.774 2.129-.774c-1.161-.581-3.522-1.78-3.677-1.935z" style="fill:var(--color2, #fda3c4)"/>
      <path fill="none" stroke="#1f1f1f" stroke-width=".327" d="m8.69 24.3-2.903 2.869c0 .581 1.355 3.096 2.516 3.096.929 0 .645-1.548.387-2.322l2.129-2.129L8.69 24.3zm4.644.934 1.874-2.989 2.892 1.218-2.25 2.351c.258.71.503 2.206-.581 2.516s-1.742-1.935-1.935-3.096zm-1.161-8.902c-.155-.155-1.742 1.871-2.516 2.903-.194.323-.581 1.122-.581 1.742s2.193 1.161 3.29 1.355l2.322-1.355c-.387-.387-1.122-1.316-.968-1.935s1.484-.774 2.129-.774c-1.161-.581-3.522-1.78-3.677-1.935z" style="stroke:var(--color4, #1f1f1f)"/>
      <path fill="#fff" d="M12.755 10.333c-.387-1.032-1.046-3.84 0-5.209.909-1.19.885-2.511 1.466-2.511s.913 1.257.913 1.902c1.814 0 2.816.609 3.424.913s.989-1.836 1.75-1.598c.475.148.459 1.729.257 3.407 1.331-1.613 3.7-3.883 4.574-2.516.495.774-3.4 4.515-5.39 5.612-.377.769-.889 1.352-1.577 1.548l-.968.968c.729.71 2.258 2.167 2.544 2.322.358.194 1.763-.674 2.537-1.448s2.079.287 1.112 1.448c-.968 1.161-1.935 2.709-4.064 1.935a13.302 13.302 0 0 1-2.387-1.161l-1.097 2.191c1.032.323 3.096 1.524 3.096 2.453s-.774 2.193-1.161 2.709l-2.322-.968c.142-.365.51-1.075.897-1.154-.535.009-2.577-.023-2.833-.588-.526-1.161.111-2.013.692-2.129l1.631-.325-5.999-1.417 2.903-6.386zM7.904 19.81c1.703-.929 1.754-.575 1.948-.382s.335.542-.387 1.161c-1.355 1.161-2.398 2.265-5.822 1.504C1.936 21.714.98 18.801.98 18.136c0-1.935 1.652-2.359 1.519-1.03-.194 1.935.737 3.237 1.297 3.483 1.319.581 1.981.382 4.109-.779zm1.948 3.488V21.75l2.466.581c.065.516.011 1.045-.144 1.355s-1.097 1.419-1.548 1.935L8.884 24.46l.968-1.161z" style="fill:var(--color5, #fff)"/>
      <path fill="none" stroke="#1f1f1f" stroke-width=".327" d="M12.755 10.333c-.387-1.032-1.046-3.84 0-5.209.909-1.19.885-2.511 1.466-2.511s.913 1.257.913 1.902c1.814 0 2.816.609 3.424.913s.989-1.836 1.75-1.598c.475.148.459 1.729.257 3.407m-7.81 3.096c2.013-.774 4.451.71 5.418 1.548m-5.418-1.548-2.903 6.386 5.999 1.417m2.322-6.255c.687-.196 1.2-.779 1.577-1.548m-1.577 1.548-.968.968c.729.71 2.258 2.167 2.544 2.322.358.194 1.763-.674 2.537-1.448s2.079.287 1.112 1.448c-.968 1.161-1.935 2.709-4.064 1.935a13.302 13.302 0 0 1-2.387-1.161m2.803-5.612c1.99-1.097 5.885-4.838 5.39-5.612-.875-1.368-3.243.903-4.574 2.516m-.816 3.096c.433-.886.686-2.019.815-3.096m-3.617 8.708a9.348 9.348 0 0 1-1.097-.774l1.097.774zm0 0-1.097 2.191m0 0-1.631.325c-.581.116-1.218.968-.692 2.129.319.705 3.419.581 2.903.581-.413 0-.817.774-.968 1.161l2.322.968c.387-.516 1.161-1.78 1.161-2.709s-2.064-2.131-3.096-2.453zm-5.999 1.292c-.194-.194-.245-.547-1.948.382-2.129 1.161-2.791 1.36-4.109.779-.56-.247-1.49-1.548-1.297-3.483.133-1.329-1.519-.905-1.519 1.03 0 .665.957 3.578 2.663 3.957 3.424.761 4.467-.343 5.822-1.504.722-.619.581-.968.387-1.161zm0 2.322v1.548l-.968 1.161 1.742 1.161c.452-.516 1.393-1.626 1.548-1.935s.208-.839.144-1.355l-2.466-.581z" style="stroke:var(--color4, #1f1f1f)"/>
      <path fill="#f40000" d="M3.465 15.171c-1.573-.688-1.421-2.134-.968-3.096 1.935.387 4.064-1.355 5.418-2.322s4.401-1.979 4.401-1.205l.243 1.609c2.375-.405 4.388.52 5.612 1.918 1.084 1.239.452 1.677 0 1.742l-.774-1.161c-2.709-.387-2.903 1.742-4.838 3.483-1.548 1.393-2.967 3.161-3.483 3.87-1.742-1.613-4.114-4.183-5.612-4.838z" style="fill:var(--color3, #f40000)"/>
      <path fill="none" stroke="#1f1f1f" stroke-width=".327" d="M12.561 10.157c2.375-.405 4.388.52 5.612 1.918 1.084 1.239.452 1.677 0 1.742l-.774-1.161c-2.709-.387-2.903 1.742-4.838 3.483-1.548 1.393-2.967 3.161-3.483 3.87-1.742-1.613-4.114-4.183-5.612-4.838-1.573-.688-1.421-2.134-.968-3.096 1.935.387 4.064-1.355 5.418-2.322s4.401-1.979 4.401-1.205l.243 1.609zm0 0c.213.177-.512.102-.774.177l.774-.177z" style="stroke:var(--color4, #1f1f1f)"/>
      <path fill="#fff" stroke="#1f1f1f" stroke-width=".327" d="M11.586 13.935c-.068.443-.46.828-1.112 1.069-.646.239-1.511.32-2.439.176s-1.729-.481-2.273-.903c-.549-.426-.807-.911-.738-1.354s.46-.828 1.112-1.069c.646-.239 1.511-.32 2.439-.176s1.729.481 2.273.903c.549.426.807.911.738 1.354z" style="fill:var(--color5, #fff);stroke:var(--color4, #1f1f1f)"/>
      <path fill="#fff" d="M15.657 7.043c-1.393-.31-1.613.387-1.548.774 0 .774.581.774 1.354.774.774 0 1.42-1.276.193-1.548zm3.484.363c-1.084-.31-1.484.298-1.42.685 0 .581.065.694 1.42.887.939.134 1.355-1.185 0-1.572z" style="fill:var(--color5, #fff)"/>
      <path fill="none" stroke="#1f1f1f" stroke-width=".327" d="M15.657 7.043c-1.393-.31-1.613.387-1.548.774 0 .774.581.774 1.354.774.774 0 1.42-1.276.193-1.548zm3.484.363c-1.084-.31-1.484.298-1.42.685 0 .581.065.694 1.42.887.939.134 1.355-1.185 0-1.572zm-3.097 1.766c.194.645.774 1.626 1.548.387" style="stroke:var(--color4, #1f1f1f)"/>
      <path fill="#1f1f1f" d="M15.616 7.8a.775.775 0 1 1-1.55-.001.775.775 0 0 1 1.55.001zm3.654.304a.774.774 0 1 1-1.548 0 .774.774 0 0 1 1.548 0z" style="fill:var(--color4, #1f1f1f)"/>
      <path fill="#fda3c4" d="M15.747 8.577c-.148-.323.137-.245.297-.165.238-.132.372.039.251.172s-.4.316-.549-.006z" style="fill:var(--color2, #fda3c4)"/>
      <path fill="#1f1f1f" d="M5.531 12.891c.007-.021.014-.038.018-.053l.027-.079.032-.103c.012-.041.025-.087.037-.135l.026-.106.014-.066.01-.054a.453.453 0 0 0 .007-.044l.005-.023c.002-.011.008-.019.018-.026s.022-.008.035-.007c.012.002.024.008.031.017s.011.019.008.031l-.005.023-.007.042-.011.055-.015.07-.025.105a2.672 2.672 0 0 1-.038.14c-.011.039-.023.073-.032.1a.45.45 0 0 1 .069-.035c.018-.007.038-.015.065-.022.027-.006.048-.011.064-.013a.505.505 0 0 1 .08.005.271.271 0 0 1 .119.043.256.256 0 0 1 .092.161.386.386 0 0 1-.009.107.499.499 0 0 1-.053.162.335.335 0 0 1-.094.095.278.278 0 0 1-.06.035.76.76 0 0 1-.152.038.487.487 0 0 1-.109-.006l-.033-.004a.434.434 0 0 1-.05-.011.18.18 0 0 1-.053-.022l-.012-.008a.041.041 0 0 1-.021-.026c-.002-.012.001-.022.008-.031s.017-.015.031-.016a.054.054 0 0 1 .035.008l.014.009.025.009.036.008.033.004.043.004a.348.348 0 0 0 .161-.028.349.349 0 0 0 .085-.061.25.25 0 0 0 .027-.037l.024-.044a.603.603 0 0 0 .03-.179.257.257 0 0 0-.008-.04.24.24 0 0 0-.023-.038c-.012-.013-.019-.022-.026-.027a.14.14 0 0 0-.026-.016.301.301 0 0 0-.097-.013.167.167 0 0 0-.051.01.289.289 0 0 0-.05.017l-.042.018a.54.54 0 0 0-.059.045l-.023.017c-.017.015-.03.026-.038.035a3.442 3.442 0 0 1-.057.15c-.011.028-.019.049-.026.063a1.261 1.261 0 0 0-.023.054l-.019.046a.212.212 0 0 1-.021.035l-.006.003-.015.007-.021.007c-.006.001-.014.004-.022.004-.008 0-.015 0-.02-.002s-.01-.006-.013-.012a.05.05 0 0 1-.004-.023c0-.01.003-.021.004-.032a.288.288 0 0 1 .014-.07 1.508 1.508 0 0 1 .059-.149c.008-.016.018-.032.028-.046s.02-.029.033-.044c.005-.013.014-.022.024-.032zm1.121.723a.056.056 0 0 1-.04.01l-.03-.003a.42.42 0 0 1-.188-.08.493.493 0 0 1-.061-.055.405.405 0 0 1-.053-.089.356.356 0 0 1-.034-.095.377.377 0 0 1 .007-.119.42.42 0 0 1 .028-.115.707.707 0 0 1 .136-.164.455.455 0 0 1 .07-.049.46.46 0 0 1 .241-.048c.053.004.09.01.114.019a.676.676 0 0 1 .17.11.305.305 0 0 1 .048.066.292.292 0 0 1 .03.072.356.356 0 0 1 .006.095.54.54 0 0 1-.1.275.504.504 0 0 1-.076.085.306.306 0 0 1-.096.055.36.36 0 0 1-.087.027.284.284 0 0 1-.086.002zm-.198-.137c.018-.006.034-.006.048.002l.027.016a.324.324 0 0 0 .123.035.334.334 0 0 0 .068.002.405.405 0 0 0 .063-.02.26.26 0 0 0 .131-.109.643.643 0 0 0 .046-.071c.008-.017.015-.04.024-.069a.474.474 0 0 0 .017-.096.247.247 0 0 0-.003-.073.307.307 0 0 0-.057-.103.444.444 0 0 0-.135-.085.349.349 0 0 0-.085-.014.331.331 0 0 0-.108.01.458.458 0 0 0-.072.025.352.352 0 0 0-.057.041.378.378 0 0 0-.067.07.297.297 0 0 0-.046.068.507.507 0 0 0-.03.187.34.34 0 0 0 .03.078.414.414 0 0 0 .039.07l.042.037zm1.136.36a.056.056 0 0 1-.04.01l-.03-.003a.42.42 0 0 1-.188-.08.493.493 0 0 1-.061-.055c-.016-.019-.034-.048-.053-.089s-.031-.072-.034-.095a.377.377 0 0 1 .007-.119.42.42 0 0 1 .028-.115.707.707 0 0 1 .136-.164.455.455 0 0 1 .07-.049.46.46 0 0 1 .241-.048c.053.004.09.01.114.019a.676.676 0 0 1 .17.11.305.305 0 0 1 .048.066.292.292 0 0 1 .03.072.356.356 0 0 1 .006.095.54.54 0 0 1-.1.275.504.504 0 0 1-.076.085.306.306 0 0 1-.096.055.36.36 0 0 1-.087.027.284.284 0 0 1-.086.002zm-.199-.137c.018-.006.034-.006.048.002l.027.016a.324.324 0 0 0 .123.035.334.334 0 0 0 .068.002.405.405 0 0 0 .063-.02.26.26 0 0 0 .131-.109.643.643 0 0 0 .046-.071c.008-.017.015-.04.024-.069a.474.474 0 0 0 .017-.096.247.247 0 0 0-.003-.073.307.307 0 0 0-.057-.103.444.444 0 0 0-.135-.085.349.349 0 0 0-.085-.014.331.331 0 0 0-.108.01.525.525 0 0 0-.073.025.454.454 0 0 0-.124.111.277.277 0 0 0-.046.068.483.483 0 0 0-.03.187.34.34 0 0 0 .03.078.414.414 0 0 0 .039.07l.042.037zm.819.007-.007.023-.013.056a.398.398 0 0 1-.013.05l-.017.049-.009.029c-.004.01-.012.018-.023.024s-.023.007-.035.003a.055.055 0 0 1-.029-.02c-.007-.011-.008-.021-.004-.031l.008-.027.017-.048a1.055 1.055 0 0 0 .025-.103l.029-.108.024-.091.01-.044a1.874 1.874 0 0 1 .052-.175l.007-.011.01-.014a.058.058 0 0 1 .031-.017c.006-.001.012-.001.019.002s.014.008.021.015c.012.012.017.022.018.03s0 .013-.006.016l-.007.004-.019.063-.02.068-.019.062a.058.058 0 0 1-.004.02l-.008.038c.027-.033.047-.057.062-.073.015-.017.032-.032.048-.048a1.144 1.144 0 0 1 .175-.137.375.375 0 0 1 .062-.019l.026-.003a.049.049 0 0 1 .037.006c.011.007.018.015.021.026s0 .021-.008.031a.052.052 0 0 1-.03.018l-.026.004a.228.228 0 0 0-.033.008 1.06 1.06 0 0 0-.196.166l-.065.075a.432.432 0 0 1-.079.074l-.033.008zm.512.383c-.012.005-.023.006-.035.003s-.021-.01-.028-.02a.036.036 0 0 1-.005-.03l.007-.015.015-.053.018-.061.016-.062.022-.096.022-.107.018-.081.012-.064.008-.047a.073.073 0 0 0 .003-.022l.002-.015a.03.03 0 0 1 .015-.025.041.041 0 0 1 .034-.009c.012.001.023.007.032.015s.012.018.01.029v.013l-.005.029a.438.438 0 0 0-.007.045l-.012.066-.017.082a2.09 2.09 0 0 0-.025.106c-.008.038-.014.071-.021.098l-.016.064-.018.062-.016.055-.007.017c-.002.011-.009.019-.021.024zm.351-.664c.008-.009.018-.015.03-.017s.025.001.037.007a.044.044 0 0 1 .021.026l.008.042a.89.89 0 0 1 .014.109c.004.039.006.07.01.091l.021.092.033.136c.012.052.021.085.026.102l.016.05a.212.212 0 0 0 .025.051l.008.012.022-.017c.03-.027.052-.046.063-.061l.041-.053.078-.107a5.18 5.18 0 0 1 .131-.173l.045-.055.013-.015c.006-.009.017-.014.03-.016a.067.067 0 0 1 .037.007c.011.007.018.015.019.027.002.012 0 .021-.009.03l-.011.015c-.009.009-.023.027-.044.053a4.424 4.424 0 0 0-.13.17l-.078.106-.042.055a.487.487 0 0 1-.073.074c-.002.002-.005.006-.011.01-.005.004-.009.008-.012.009l-.014.01-.014.01-.015.007a.045.045 0 0 1-.018.004h-.018a.02.02 0 0 1-.019-.007c-.023-.007-.043-.028-.062-.06a.2.2 0 0 1-.034-.067 1.116 1.116 0 0 1-.044-.16c-.012-.052-.022-.097-.033-.136a1.41 1.41 0 0 1-.034-.193.634.634 0 0 0-.011-.1l-.01-.042c-.003-.011 0-.021.008-.031zm1.45.908-.002-.001-.028.027-.029.022a.808.808 0 0 1-.086.05.502.502 0 0 1-.098.044c-.021.005-.041.01-.06.012l-.058.005a.366.366 0 0 1-.069-.007.329.329 0 0 1-.082-.032c-.025-.015-.044-.028-.056-.037s-.025-.02-.036-.033a.202.202 0 0 1-.033-.045.194.194 0 0 1-.02-.077.287.287 0 0 1 .002-.068.277.277 0 0 1 .052-.104.362.362 0 0 1 .058-.052.275.275 0 0 1 .07-.043c.017-.006.034-.012.053-.017s.043-.01.073-.015a.39.39 0 0 1 .196.029c.021.013.047.04.079.08l.012.016-.002-.07a.66.66 0 0 0-.034-.151.225.225 0 0 0-.025-.049.329.329 0 0 0-.053-.051.34.34 0 0 0-.314-.061l-.014.01c-.01.007-.022.011-.035.01s-.024-.006-.034-.014-.012-.019-.011-.03a.04.04 0 0 1 .015-.028l.018-.012c.017-.014.052-.023.104-.029a.36.36 0 0 1 .16.009.483.483 0 0 1 .246.156c.013.02.025.04.034.064s.018.052.025.087c.007.035.012.064.013.087s.003.054.003.097c.001.039.003.068.005.085l.001.054.001.038c.004.01-.002.021-.016.033l-.025.01zm-.067-.059-.012-.034-.019-.044a.444.444 0 0 0-.052-.076.225.225 0 0 0-.056-.059.235.235 0 0 0-.124-.015.284.284 0 0 0-.06.012l-.043.014c-.011.004-.027.015-.048.03s-.035.028-.043.036c-.006.009-.015.021-.023.036a.14.14 0 0 0-.015.081.112.112 0 0 0 .012.046.13.13 0 0 0 .022.031l.024.022a.28.28 0 0 0 .046.028.158.158 0 0 0 .05.021l.045.005c.013 0 .028-.002.044-.004l.047-.008a.873.873 0 0 0 .149-.076l.024-.022.031-.024z" style="fill:var(--color4, #1f1f1f)"/>
    </symbol>
    <symbol id="icon-cosaa" viewBox="0 0 21 32">
      <path d="M1.274 26.584c2.963-4.385 6.044-8.415 8.415-13.156 2.133-4.03 3.081-9.719 6.518-12.8 1.185-1.067 3.437-.83 3.911 1.067 1.067 4.741-2.252 10.074-4.385 14.222-2.607 5.096-5.689 10.193-9.481 14.459-2.37 2.607-6.993-.83-4.978-3.793z"/>
    </symbol>
    <symbol id="icon-costums" viewBox="0 0 110 32">
      <path fill="#fda3c4" d="m3.363 22.405-1.939-2.993L.449 7.483c.965-1.691 4.313-5.164 9.979-5.526C17.511 1.505 37.83.435 45.964.611s16.721.105 19.583.123c2.862.018 32.308-.905 36.062.982 3.003 1.509 5.746 4.383 6.742 5.632-.303.246-.73 1.014-.014 2.111s1.086 2.781 1.182 3.485c-.405.412-1.214 1.334-1.217 1.731-.004.497-2.716.604-1.364 1.233 1.081.504 1.343 1.954 1.339 2.617-1.059.614-3.658 1.865-5.587 1.952s-3.619.515-4.223.719l-.007.994c.903.171 2.527.562 1.803.756-.905.243-1.805-.384-2.561-.016s-1.815 1.106-.913 1.36c.276.231.547.347.791.392.299-.058.623-.104.865-.134-.155.101-.475.207-.865.134-.508.098-.946.227-.796.353.24.2 1.202.504 1.653.631l.748.75-2.41-.015c-1.326-.008-1.06.738-.76 1.113-.352.081-1.267.191-2.109-.013-1.053-.255-.603.12-2.412.233-1.447.09-24.573.622-27.033.565.202-.164.335-.495-.75-.502-1.356-.009-1.506-.009-3.165.228s-19.181-.083-24.303-.115c-4.097-.026-12.579-.037-13.332-.042-2.363.399-7.962 1.167-11.456 1.046-4.368-.152-8.126-1.417-8.125-1.542.001-.099-.798-.792-1.198-1.125.4.21 1.202.504 1.205.008s-.79-1.951-1.188-2.616l1.213-1.234zm2.815 7.097c-.482-.003-.505.494-.457.742l-.98.118c-.48.411-1.349 1.209-.987 1.112s1.057-.366 1.359-.488c.202-.164 1.57-.487 5.426-.463 4.82.03 4.37-.221 4.822-.218s-8.582-.799-9.184-.803z" style="fill:var(--color2, #fda3c4)"/>
    </symbol>
    <symbol id="icon-dresses" viewBox="0 0 95 32">
      <path fill="#fda3c4" d="m3.319 22.455-1.873-3.021-.89-12.069c.949-1.716 4.227-5.245 9.748-5.636C17.205 1.241 25.434.127 33.356.27s16.286.035 19.073.041c2.788.006 31.472-1.055 35.119.838 2.917 1.514 5.574 4.411 6.538 5.67-.296.251-.716 1.029-.024 2.137s1.044 2.809 1.133 3.522c-.396.418-1.189 1.355-1.194 1.757-.006.503-2.648.623-1.335 1.254 1.051.505 1.298 1.972 1.29 2.642-1.034.626-3.572 1.903-5.452 2s-3.527.537-4.116.745l-.012 1.006c.879.169 2.459.558 1.752.758-.883.25-1.757-.381-2.494-.005s-1.773 1.128-.896 1.381c.268.232.531.348.767.394.292-.06.607-.108.844-.139-.152.103-.464.212-.844.139-.495.101-.923.233-.776.36.232.202 1.168.505 1.606.632l.726.756-2.348-.005c-1.291-.003-1.036.752-.746 1.13-.343.083-1.235.199-2.054-.004-1.025-.254-.589.124-2.351.246-1.41.098-23.937.736-26.333.689.198-.167.328-.502-.728-.504-1.32-.003-1.467-.003-3.084.245s-12.911-.027-17.899-.038l-7.189-.015c-2.303.414-7.761 1.215-11.163 1.108-4.253-.135-7.907-1.399-7.906-1.525.001-.101-.773-.798-1.161-1.134.389.21 1.168.505 1.174.002s-.76-1.971-1.144-2.642l1.188-1.254zm2.706 7.171c-.47-.001-.495.502-.449.753l-.955.124c-.469.418-1.32 1.229-.967 1.129s1.031-.375 1.326-.5c.198-.167 1.532-.5 5.287-.492 4.695.01 4.258-.242 4.698-.241s-8.354-.772-8.941-.773z" style="fill:var(--color2, #fda3c4)"/>
    </symbol>
    <symbol id="icon-duga" viewBox="0 0 59 32">
      <path d="M8.17 29.114c5.467-7.631 7.541-15.696 18.318-18.147 10.422-2.441 19.317 3.699 25.584 11.162 2.582 3.125 7.84.481 6.303-3.387C53.733 6.073 39.297-.971 25.844 1.204 14.341 3.144-.805 14.261.816 27.019c.455 3.366 5.305 5.001 7.354 2.095z"/>
    </symbol>
    <symbol id="icon-duga2" viewBox="0 0 64 32">
      <path d="M54.605 29.258c-6.024-7.906-8.471-16.376-19.953-18.635-11.106-2.259-20.329 4.518-26.729 12.612-2.635 3.388-8.282.753-6.776-3.388C5.665 6.294 20.723-1.612 35.029.271c12.235 1.694 28.612 12.988 27.294 26.541-.376 3.576-5.459 5.459-7.718 2.447z"/>
    </symbol>
    <symbol id="icon-facebook-logo-1" viewBox="0 0 32 32">
      <path fill="#ffd4e4" d="M30.977 4.247C29.697.028 25.804.669 22.176.683 17.167.702 10.178-1.035 5.705 1.946 2.635 3.992 1.421 8.442.698 11.812c-.934 4.356-.988 9.068.184 13.379.8 2.943 3.455 6.805 6.835 6.198 2.173.431 4.354.476 6.591.364 2.838-.141 6.167-.194 8.857-1.141a.557.557 0 0 0 .202-.135 33.478 33.478 0 0 0 2.472-.406c3.987-.827 4.749-4.605 5.221-8.104.797-5.907 1.676-11.92-.083-17.719zM3.26 9.447a.573.573 0 0 0-.005.18c-.093.476-.186.953-.268 1.429-.014.029-.032.054-.041.089-.24.904-.455 1.811-.653 2.718-.006.004-.013.008-.018.013.187-1.221.411-2.311.625-3.161.108-.427.236-.885.38-1.352-.006.029-.015.055-.02.084zm3.314 16.054c-.067-.127-.13-.257-.2-.381.118.044.233.092.346.145.25.31.489.629.719.954a9.197 9.197 0 0 1-.864-.719zm3.721-19.062a12.768 12.768 0 0 1-.124-.377c.268-.109.536-.219.805-.327-.215.242-.441.478-.681.704zm.857 2.568c.282-.334.547-.676.798-1.027.066-.047.133-.093.197-.142-.252.378-.488.769-.717 1.165l-.279.004zm3.122 10.572c.016-.404.043-.807.04-1.215a.469.469 0 0 0-.118-.319c.114-.005.231-.003.343-.013a14.026 14.026 0 0 0-.265 1.546zm8.32-3.518c-.652.03-.774.787-.386 1.114-.388 1.228-.339 2.532-.4 3.854-.094 2.037-.039 4.076.074 6.111-1.957.149-3.921.343-5.886.544.137-1.022-.096-2.27-.113-3.144-.039-2.032-.135-4.121.169-6.137.041-.274-.003-.53-.173-.724.46-.333.397-1.011-.195-1.245-1.034-.409-2.457-.261-3.668-.203a9.444 9.444 0 0 1 .018-3.719c.877-.051 1.753-.128 2.628-.193.482-.036.672-.449.584-.795.015-.027.035-.053.046-.082.286-.744.326-1.517.556-2.281.416-1.384 1.597-2.524 2.71-3.367 2.108-1.596 4.801-2.093 7.36-1.676.112 1.218.3 2.423.459 3.634-.321-.022-.646-.01-.935-.005-.953.018-1.898.175-2.85.206-.436.014-.817.357-.81.81.011.69.175 1.395.253 2.087-.281.412-.101 1.111.556 1.132.748.023 1.495.04 2.243.019.385-.011.867-.021 1.316-.1-.133.626-.123 1.304-.147 1.933-.025.68-.025 1.372.004 2.063-.27.014-.54.033-.808.045l-2.609.119zm3.544 2.658c-.026-.258-.04-.513-.071-.772a.624.624 0 0 0-.334-.461c.137.009.275.019.412.024.008.062.012.125.02.186.02.147.099.256.205.331-.08.231-.16.462-.232.692zm2.879 3.728c-.198 1.464-.529 2.587-1.04 3.452a79.663 79.663 0 0 0 1.059-3.588l-.019.136z" style="fill:var(--color1, #ffd4e4)"/>
    </symbol>
    <symbol id="icon-gal1" viewBox="0 0 28 32">
      <path d="M1.668 30.237c3.48 1.464 6.478.514 10.2.047 4.417-.505 8.743-1.093 13.16-1.598 2.25-.298 3.597-2.726 2.357-4.662-4.318-7.17-7.714-15.002-11.949-22.264-1.148-1.854-4.465-.364-3.563 1.766 2.633 6.653 6.035 13.003 8.75 19.564-2.945.337-6.064.683-9.008 1.02-3.64.375-7.135.219-10.066 2.386-1.342.946-1.483 3.132.119 3.741z"/>
    </symbol>
    <symbol id="icon-gal2" viewBox="0 0 32 32">
      <path d="M4.133 30.902a161.675 161.675 0 0 0 25.257-3.157c1.911-.357 2.6-3.081 1.601-4.453-4.651-6.71-7.753-14.26-10.53-21.997-.799-2.306-4.179-1.196-3.626 1.207 1.648 7.043 4.36 13.608 7.407 20.155A167.035 167.035 0 0 1 3.88 24.788c-3.937.133-3.684 6.247.254 6.113z"/>
    </symbol>
    <symbol id="icon-heard" viewBox="0 0 32 32">
      <path fill="#fda3c4" d="M31.533 16c0 8.676-6.984 15.709-15.6 15.709S.333 24.676.333 16C.333 7.324 7.317.291 15.933.291s15.6 7.033 15.6 15.709z" style="fill:var(--color2, #fda3c4)"/>
      <path fill="#1f1f1f" d="M24.434 17.944c-3.104 2.552-6.588 4.355-9.037 7.407-.172.194-.448.222-.724.139-.172.139-.483.166-.724-.028-2.828-2.58-4.518-5.576-5.726-8.766-.966-2.552-2.966-6.519-.966-8.932 1.311-1.609 3.967-1.692 6.071-.777 2.345 1.026 3.242 2.913 3.691 4.827.931-1.387 2.311-2.58 4.484-2.83 2.518-.277 4.725 1.082 5.45 2.94.862 2.275-.655 4.466-2.518 6.02zm.897-6.187c-1.069-1.72-3.691-2.081-5.484-1.026-1.414.804-2.035 2.108-2.587 3.357-.207.499-1.276.361-1.345-.166-.31-2.219-.69-5.187-3.794-6.186-1.138-.499-2.001-.25-2.69.693-1.414.416-1.931 1.165-1.518 2.302.069.999.414 1.997.69 2.968 1.138 3.884 2.794 7.601 5.726 10.93 2.173-2.885 5.208-4.633 8.278-6.88 2.001-1.443 4.139-3.717 2.725-5.992z" style="fill:var(--color4, #1f1f1f)"/>
    </symbol>
    <symbol id="icon-heard2" viewBox="0 0 28 32">
      <path d="M23.902 19.022c-4.114 4.206-8.731 7.177-11.977 12.206-.229.32-.594.366-.96.229-.229.229-.64.274-.96-.046-3.749-4.251-5.989-9.189-7.589-14.446-1.28-4.206-3.931-10.743-1.28-14.72C2.873-.406 6.393-.544 9.182.965c3.109 1.691 4.297 4.8 4.891 7.954 1.234-2.286 3.063-4.251 5.943-4.663 3.337-.457 6.263 1.783 7.223 4.846 1.143 3.749-.869 7.36-3.337 9.92zM25.09 8.827c-1.417-2.834-4.891-3.429-7.269-1.691-1.874 1.326-2.697 3.474-3.429 5.531-.274.823-1.691.594-1.783-.274-.411-3.657-.914-8.549-5.029-10.194-1.509-.823-2.651-.411-3.566 1.143-1.874.686-2.56 1.92-2.011 3.794.091 1.646.549 3.291.914 4.891 1.509 6.4 3.703 12.526 7.589 18.011 2.88-4.754 6.903-7.634 10.971-11.337 2.651-2.377 5.486-6.126 3.611-9.874z"/>
    </symbol>
    <symbol id="icon-heard3" viewBox="0 0 28 32">
      <path d="M24.288 19.022c-4.114 4.206-8.731 7.177-11.977 12.206-.229.32-.594.366-.96.229-.229.229-.64.274-.96-.046-3.749-4.251-5.989-9.189-7.589-14.446-1.28-4.206-3.931-10.743-1.28-14.72C3.259-.406 6.779-.544 9.568.965c3.109 1.691 4.297 4.8 4.891 7.954 1.234-2.286 3.063-4.251 5.943-4.663 3.337-.457 6.263 1.783 7.223 4.846 1.143 3.749-.869 7.36-3.337 9.92zm1.188-10.195c-1.417-2.834-4.891-3.429-7.269-1.691-1.874 1.326-2.697 3.474-3.429 5.531-.274.823-1.691.594-1.783-.274-.411-3.657-.914-8.549-5.029-10.194-1.509-.823-2.651-.411-3.566 1.143-1.874.686-2.56 1.92-2.011 3.794.091 1.646.549 3.291.914 4.891 1.509 6.4 3.703 12.526 7.589 18.011 2.88-4.754 6.903-7.634 10.971-11.337 2.651-2.377 5.486-6.126 3.611-9.874z"/>
    </symbol>
    <symbol id="icon-heart" viewBox="0 0 32 32">
      <path stroke-linecap="round" stroke-linejoin="round" stroke-width="2.667" d="M9.333 4c-3.681 0-6.667 2.955-6.667 6.6 0 2.943 1.167 9.927 12.651 16.987a1.316 1.316 0 0 0 1.366 0c11.484-7.06 12.651-14.044 12.651-16.987 0-3.645-2.985-6.6-6.667-6.6S16 8 16 8s-2.985-4-6.667-4z"/>
    </symbol>
    <symbol id="icon-hoodie" viewBox="0 0 41 32">
      <path fill="#fda3c4" d="m3.165 8.391.149-1.992L6.848.648c.982-.457 3.591-.954 6.179.719 3.234 2.091 7.263 4.345 10.746 7.063s7.245 5.471 8.485 6.408c1.24.937 6.391 4.563 7.399 6.64.806 1.662 1.047 3.86 1.066 4.752-.214.014-.654.225-.707.957s-.45 1.619-.642 1.971c-.313.056-.971.214-1.104.394-.166.225-1.383-.606-1.003.12.304.58-.064 1.326-.285 1.626-.665-.063-2.212-.337-3.08-.923s-1.747-.939-2.077-1.042l-.333.451c.336.371.914 1.076.534.929-.475-.183-.659-.76-1.11-.838s-1.157-.085-.849.324a.938.938 0 0 0 .214.435c.149.071.306.154.421.22a.64.64 0 0 1-.421-.22c-.254-.12-.487-.204-.463-.097.038.169.356.62.51.824l.077.584-1.044-.789c-.574-.434-.706-.007-.701.26a2.697 2.697 0 0 1-.914-.69c-.374-.458-.303-.141-1.127-.676-.66-.428-2.929-2.183-3.981-3.007.142-.009.31-.117-.16-.472-.587-.444-.653-.493-1.454-.922s-5.744-4.338-7.963-6.013l-3.198-2.415c-1.161-.584-3.854-2.051-5.335-3.239-1.851-1.486-3.067-3.281-3.026-3.337.033-.045-.085-.62-.148-.901.105.225.356.62.522.394s.303-1.145.351-1.577l.938-.169zm-1.13 4.146c-.209-.158-.384.061-.445.19l-.466-.264c-.345.032-.988.113-.798.186s.582.176.754.218c.142-.009.845.287 2.516 1.549 2.089 1.577 1.976 1.317 2.172 1.465s-3.471-3.147-3.732-3.345z" style="fill:var(--color2, #fda3c4)"/>
    </symbol>
    <symbol id="icon-icon_obmen" viewBox="0 0 26 32">
      <path fill="#1f1f1f" stroke="#1f1f1f" stroke-width=".327" d="M21.706 20.871c.911-2.886-1.646-5-3.038-5.696-.316 1.139-.759 3.684 0 4.747s.949 2.468.949 3.038v1.519l2.089-3.608z" style="fill:var(--color4, #1f1f1f);stroke:var(--color4, #1f1f1f)"/>
      <path fill="#fff" stroke="#1f1f1f" stroke-width=".327" d="M13.449 2.98c1.419-.847 3.204-.965 2.221.853-.928 1.715-1.869 2.306-2.289 2.409 1.053-.204 2.488-.462 2.152.866-.251.991-1.581 1.552-1.894 1.594.841.079 1.468.953.766 1.43-1.405.954-2.308.883-2.585.728.105.305.226 1.694-2.183.866l-2.464-1.594c1.487-2.09 3.747-5.644 6.276-7.152z" style="fill:var(--color5, #fff);stroke:var(--color4, #1f1f1f)"/>
      <path fill="#f40000" d="m18.1 22.958-8.354-.57-3.608-3.418.759-8.924 10.063.57 2.089 3.418-.949 8.924z" style="fill:var(--color3, #f40000)"/>
      <path fill="none" stroke="#1f1f1f" stroke-width=".327" d="m10.315 14.034-.57 8.355m.57-8.355h8.734m-8.734 0-3.418-3.987m3.418 3.987 1.074 3.987m-1.644 4.367 8.354.57m-8.354-.57L6.137 18.97l.759-8.924m2.849 12.342 1.643-4.367m6.712 4.937.949-8.924m-.949 8.924-.738-4.937m1.687-3.987-2.089-3.418-10.063-.57m12.152 3.988-1.687 3.987m0 0-.402.949h-5.316l-.256-.949" style="stroke:var(--color4, #1f1f1f)"/>
      <path fill="#fda3c4" stroke="#1f1f1f" stroke-width=".327" d="m8.605 20.3-6.646 2.468 2.848 6.836 1.329-2.468c6.646 3.228 12.722.38 13.481-.38.608-.608 1.646-4.304 2.089-6.076-2.127 4.557-10.253 3.671-14.051 2.658l.949-3.038z" style="fill:var(--color2, #fda3c4);stroke:var(--color4, #1f1f1f)"/>
      <path fill="#fff" stroke="#1f1f1f" stroke-width=".327" d="M14.552 15.151c.521.345.614.794-.061 1.162-2.089 1.139-2.278-1.519-1.519-2.468.608-.759 4.937-5.886 8.924-7.595 1.519-.652 3.304-.532 2.089 1.139-1.147 1.577-2.158 2.038-2.587 2.085 1.071-.063 2.527-.129 2.018 1.143-.38.949-1.772 1.329-2.089 1.329.823.19 1.329 1.139.57 1.519-1.519.759-2.405.569-2.658.38.063.316 0 1.709-2.279.569.517.863.095 1.725-2.407.737z" style="fill:var(--color5, #fff);stroke:var(--color4, #1f1f1f)"/>
    </symbol>
    <symbol id="icon-iphone" viewBox="0 0 32 32">
      <path fill="#fda3c4" d="M9.083 1.333c-2.056 0-3.75 1.656-3.75 3.667v22c0 2.011 1.694 3.667 3.75 3.667h12.5c2.056 0 3.75-1.656 3.75-3.667V5c0-2.011-1.694-3.667-3.75-3.667h-12.5zm0 2.445h12.5c.694 0 1.25.544 1.25 1.222v22c0 .678-.556 1.222-1.25 1.222h-12.5c-.694 0-1.25-.544-1.25-1.222V5c0-.678.556-1.222 1.25-1.222zm6.25 20.778c-.331 0-.649.129-.884.358a1.206 1.206 0 0 0 0 1.728c.234.229.552.358.884.358s.649-.129.884-.358c.234-.229.366-.54.366-.864s-.132-.635-.366-.864a1.264 1.264 0 0 0-.884-.358z" style="fill:var(--color2, #fda3c4)"/>
    </symbol>
    <symbol id="icon-location" viewBox="0 0 32 32">
      <path fill="#fda3c4" d="M16 1.333a12.003 12.003 0 0 1 12 12c0 4.968-3.787 10.173-11.2 15.733a1.334 1.334 0 0 1-1.6 0C7.787 23.506 4 18.301 4 13.333a12.003 12.003 0 0 1 12-12zM16 4a9.333 9.333 0 0 0-9.334 9.334c0 3.613 2.824 7.781 8.597 12.408l.736.581.736-.581c5.773-4.627 8.597-8.795 8.597-12.408A9.333 9.333 0 0 0 15.998 4zm0 6.667a2.67 2.67 0 0 1 2.667 2.667A2.67 2.67 0 0 1 16 16.001a2.67 2.67 0 0 1-2.667-2.667A2.668 2.668 0 0 1 16 10.667z" style="fill:var(--color2, #fda3c4)"/>
    </symbol>
    <symbol id="icon-logo" viewBox="0 0 128 32">
      <path d="M1.473 19.19c.028-.556.056-1.028.056-1.417.028-.695.056-1.417.083-2.14s.028-1.639.028-2.751a84.71 84.71 0 0 0-.083-3.584c-.056-1.334-.111-2.278-.139-2.806s-.083-1.084-.139-1.723c-.056-.639-.111-1.111-.139-1.417-.028-.333-.083-.722-.139-1.139l-.056-.611c-.028-.278.056-.528.25-.75s.472-.333.778-.361c.306-.028.611.056.861.25s.389.417.417.722l.056.611c.056.417.111.778.139 1.084s.083.806.139 1.445c.056.639.111 1.25.139 1.834.028.556.083 1.473.139 2.779.056 1.362.083 2.584.083 3.723 0 1.028-.028 1.945-.056 2.695.167-.167.278-.306.389-.445.306-.278.639-.556 1-.834s.806-.584 1.389-.917c.584-.306 1.056-.556 1.417-.695.472-.139 1.111-.25 1.917-.333.834-.056 1.445-.028 1.917.083.417.083.806.194 1.195.333.417.194.861.5 1.389.917.5.445.917.861 1.195 1.25.278.417.528.861.722 1.334.222.528.389 1.417.528 2.723.167 1.334.194 2.279.139 2.806a7.008 7.008 0 0 1-.25 1.556c-.167.5-.361.972-.584 1.417-.222.472-.556.972-.973 1.5s-.806.945-1.167 1.223c-.361.278-.889.611-1.612 1.028-.722.389-1.306.639-1.723.778a10.8 10.8 0 0 1-1.389.306c-.5.083-.917.139-1.25.167-.278.028-.556.056-.806.083a9.146 9.146 0 0 1-1.25 0c-.584-.028-1.056-.111-1.417-.25l-.333-.139a1.072 1.072 0 0 1-.667-.528c-.139-.278-.139-.556-.028-.834s.306-.472.611-.584c.306-.111.584-.111.889 0l.389.139c.139.028.361.056.667.083h.917c.222-.028.5-.056.806-.083.278-.028.639-.083 1.056-.139.445-.083.806-.167 1.084-.25.25-.056.667-.25 1.25-.556a15.622 15.622 0 0 0 1.278-.778c.222-.195.5-.5.834-.889s.584-.75.75-1.111c.167-.333.278-.695.389-1.084.083-.361.167-.778.25-1.223.028-.445-.028-1.223-.139-2.39-.167-1.167-.306-1.917-.417-2.251-.139-.333-.278-.667-.472-.945-.194-.25-.472-.528-.806-.834-.361-.25-.611-.445-.806-.528a3.146 3.146 0 0 0-.722-.25c-.222-.028-.611-.028-1.195 0-.584.056-.973.139-1.195.222-.306.083-.695.25-1.139.528-.445.25-.806.5-1.056.695-.278.222-.583.472-.861.695-.222.222-.584.722-1.084 1.473a5.615 5.615 0 0 0-.417.556c-.306.472-.528.834-.667 1.084-.028.333-.056.695-.056 1.084a71.71 71.71 0 0 1-.25 3.001c-.056.75-.111 1.334-.167 1.723-.056.417-.111.889-.167 1.473-.056.611-.111 1.028-.139 1.25-.028.25-.111.584-.25 1-.028.028-.083.056-.111.111-.056.056-.139.111-.306.25-.167.111-.306.222-.445.306s-.306.167-.5.222c-.195.056-.361.083-.5.056s-.278-.083-.389-.222c-.111-.139-.195-.306-.25-.556s-.083-.528-.139-.834c-.056-.306-.083-.611-.111-.861-.028-.306-.056-.639-.056-.973s.028-.973.083-1.917c.056-.973.139-1.695.25-2.14.083-.445.195-.889.333-1.306s.278-.834.472-1.278c.028-.361.167-.639.333-.945zm30.928 11.477c-.222.278-.5.445-.861.472l-.722.083c-.639.056-1.417.028-2.39-.139a11.749 11.749 0 0 1-2.584-.778 11.591 11.591 0 0 1-1.806-1.028c-.5-.389-1.139-1-1.862-1.917-.722-.889-1.223-1.612-1.473-2.167-.278-.584-.5-1.584-.667-3.001-.194-1.417-.25-2.417-.139-3.029.139-.584.389-1.362.778-2.334s.834-1.806 1.278-2.501c.472-.667.889-1.223 1.306-1.612.417-.417 1.056-.861 1.945-1.389.945-.584 2.084-.973 3.39-1.167 1.278-.194 2.195-.25 2.806-.167.584.056 1.389.278 2.417.695 1.056.417 1.834.778 2.334 1.084s1.028.778 1.584 1.362c.528.584.945 1.139 1.195 1.612.278.5.556 1.278.806 2.334.222 1.056.333 2.056.333 2.945 0 .834-.056 1.528-.139 2.084-.056.584-.278 1.362-.611 2.39-.361 1.028-.75 1.89-1.195 2.556-.445.695-1.056 1.334-1.862 1.917-.806.611-1.417 1-1.862 1.167-.389.222-1.084.389-2.001.528zm-5.613-2.278c.389-.25.75-.333 1.139-.222l.75.25c.389.139.806.222 1.278.25.445.056 1.056.028 1.862-.083s1.334-.222 1.612-.333c.278-.111.722-.417 1.334-.861.611-.472 1.056-.945 1.389-1.417.361-.5.667-1.167.945-2.028.306-.889.5-1.584.584-2.028.056-.472.083-1.084.083-1.862 0-.722-.083-1.556-.278-2.473-.195-.889-.389-1.5-.584-1.806-.194-.333-.5-.75-.917-1.223s-.806-.806-1.139-1.028c-.333-.222-.945-.5-1.834-.834-.889-.306-1.528-.5-1.917-.528-.361-.056-1.056-.028-2.084.139-.973.167-1.806.472-2.473.861-.722.445-1.25.778-1.528 1.028-.306.306-.667.75-1.056 1.334-.389.556-.75 1.25-1.084 2.112-.361.834-.556 1.5-.611 1.945-.056.417-.028 1.223.083 2.417.167 1.223.333 2.001.528 2.39.194.417.611 1 1.25 1.778.611.75 1.084 1.25 1.417 1.528.333.167.75.417 1.25.695zm28.702 2.278c-.222.278-.5.445-.861.472l-.722.083c-.639.056-1.417.028-2.39-.139a11.749 11.749 0 0 1-2.584-.778 11.591 11.591 0 0 1-1.806-1.028c-.5-.389-1.139-1-1.862-1.917-.722-.889-1.223-1.612-1.473-2.167-.278-.584-.5-1.584-.667-3.001-.194-1.417-.25-2.417-.139-3.029.139-.584.389-1.362.778-2.334s.834-1.806 1.278-2.501c.472-.667.889-1.223 1.306-1.612.417-.417 1.056-.861 1.945-1.389.945-.584 2.084-.973 3.39-1.167 1.278-.194 2.195-.25 2.806-.167.584.056 1.389.278 2.417.695 1.056.417 1.834.778 2.334 1.084s1.028.778 1.584 1.362c.528.584.945 1.139 1.195 1.612.278.5.556 1.278.806 2.334.222 1.056.333 2.056.333 2.945 0 .834-.056 1.528-.139 2.084-.056.584-.278 1.362-.611 2.39-.361 1.028-.75 1.89-1.195 2.556-.445.695-1.056 1.334-1.862 1.917-.806.611-1.417 1-1.862 1.167-.389.222-1.084.389-2.001.528zm-5.613-2.278c.389-.25.75-.333 1.139-.222l.75.25c.389.139.806.222 1.278.25.445.056 1.056.028 1.862-.083s1.334-.222 1.612-.333c.278-.111.722-.417 1.334-.861.611-.472 1.056-.945 1.389-1.417.361-.5.667-1.167.945-2.028.306-.889.5-1.584.584-2.028.056-.472.083-1.084.083-1.862 0-.722-.083-1.556-.278-2.473-.194-.889-.389-1.5-.584-1.806-.194-.333-.5-.75-.917-1.223s-.806-.806-1.139-1.028c-.333-.222-.945-.5-1.834-.834-.889-.306-1.528-.5-1.917-.528-.361-.056-1.056-.028-2.084.139-.973.167-1.806.472-2.473.861-.722.445-1.25.778-1.528 1.028-.306.306-.667.75-1.056 1.334-.389.556-.75 1.25-1.084 2.112-.361.834-.556 1.5-.611 1.945-.056.417-.028 1.223.083 2.417.167 1.223.333 2.001.528 2.39.194.417.611 1 1.25 1.778.611.75 1.084 1.25 1.417 1.528.333.167.75.417 1.25.695zm18.9-4.641v.611c.028.5.056.973.083 1.473s.056.945.056 1.334c0 .417-.028.861-.056 1.334v.778c-.028.278-.167.528-.389.722s-.5.306-.806.278a1.57 1.57 0 0 1-.834-.333c-.25-.222-.333-.472-.306-.75v-.722c.028-.5.056-.917.056-1.306 0-.361-.028-.806-.056-1.25-.028-.472-.056-.945-.083-1.473 0-.556-.028-1.5-.083-2.862-.056-1-.083-1.806-.083-2.417a50.758 50.758 0 0 1-.083-1.167c-.056-1.223-.083-2.112-.083-2.723s.028-1.223.083-1.806v-.139c0-.056.028-.167.083-.306.056-.139.083-.278.139-.417s.139-.25.25-.361.222-.194.361-.25c.139-.056.278-.083.472-.056s.389.111.611.25c.361.222.556.445.639.639s.083.333-.028.445l-.139.139v5.168c.028.139.056.306.056.528.028.417.056.722.083 1 .417-.972.722-1.695.945-2.167.25-.5.528-.972.806-1.473.278-.528.806-1.306 1.528-2.334.806-1.084 1.362-1.778 1.667-2.084A7.772 7.772 0 0 1 75 11.217l.584-.222c.278-.139.584-.167.917-.056.306.111.528.278.667.528s.139.528.028.834c-.111.278-.306.5-.584.611l-.584.25c-.278.111-.528.25-.722.389-.195.194-.639.778-1.334 1.695-.695 1-1.167 1.723-1.417 2.167-.25.472-.5.917-.722 1.389s-.556 1.223-1 2.251c-.528 1.139-.973 1.889-1.334 2.306-.25.139-.472.278-.722.389zm14.449 6.639c-.25.194-.528.278-.834.278s-.583-.139-.806-.333c-.222-.222-.334-.445-.334-.722l.056-.417v-3.056c0-.389-.028-.945-.056-1.639-.028-.722-.083-1.584-.139-2.556-.083-1-.166-1.945-.222-2.834s-.084-1.584-.139-2.14c-.056-.556-.111-1.084-.167-1.667s-.11-1-.138-1.223c0-.167-.028-.361-.083-.584l-.056-.389c-.055-.25 0-.5.194-.722.194-.25.445-.389.75-.417.306-.056.611.028.89.194s.417.389.444.667l.083.333c.028.278.056.528.084.75 0 .195.055.584.138 1.167.056.584.111 1.167.167 1.723s.111 1.278.166 2.167c.028.889.083 1.834.139 2.806.083 1 .166 1.862.194 2.584s.055 1.278.055 1.695v3.14l-.055.472c.028.278-.083.528-.334.722zm3.336-18.755c.11-.278.306-.472.583-.584s.583-.111.917-.028c.306.111.528.278.667.528l.472 1c.362.722.722 1.612 1.084 2.64.361.945.639 1.695.862 2.195.278.528.666 1.25 1.139 2.167.5.917 1.083 2.001 1.722 3.195.639 1.223 1.084 2.001 1.334 2.39.25.417.5.806.722 1.167.194.306.501.695.945 1.139.083.083.194.167.278.25.138-.167.25-.361.389-.556.528-.834.889-1.445 1.056-1.862.194-.5.389-1 .583-1.556a88.92 88.92 0 0 0 1.084-3.112c.528-1.473.917-2.473 1.139-3.029s.472-1.223.75-2.001c.306-.75.528-1.278.666-1.612l.194-.445c.084-.25.306-.445.584-.556.306-.111.611-.111.917-.028.306.111.528.278.639.556a.836.836 0 0 1 0 .806l-.139.445c-.139.278-.361.806-.666 1.556a38.114 38.114 0 0 1-.75 1.945c-.194.528-.584 1.528-1.112 3.029s-.917 2.529-1.083 3.084c-.222.584-.417 1.112-.611 1.612-.194.556-.584 1.306-1.195 2.251-.028.056-.083.167-.194.306-.083.139-.166.25-.222.306s-.139.167-.25.333c-.111.167-.195.278-.25.333s-.166.139-.306.25-.278.167-.389.194c-.111.028-.25.056-.417.111s-.334.056-.501-.056c-.583-.056-1.194-.445-1.862-1.139-.611-.556-1.028-1.028-1.278-1.473-.25-.361-.501-.75-.75-1.167-.278-.445-.75-1.278-1.39-2.556-.639-1.223-1.194-2.278-1.722-3.195a44.91 44.91 0 0 1-1.139-2.195c-.278-.584-.612-1.389-1.001-2.417a18.388 18.388 0 0 0-.945-2.417l-.528-1c-.138-.25-.138-.528-.027-.806zm39.984 14.144h-.055a6.85 6.85 0 0 0-.473.834c-.166.222-.333.472-.528.722-.25.333-.806.917-1.667 1.723-.861.834-1.528 1.389-2 1.639-.445.25-.89.472-1.334.639s-.889.306-1.334.445a9.014 9.014 0 0 1-1.667.222c-.639 0-1.362-.111-2.139-.333-.695-.222-1.222-.445-1.584-.611s-.722-.361-1.084-.611c-.361-.222-.722-.556-1.083-.945-.417-.472-.75-1.056-1.001-1.806-.25-.695-.389-1.25-.417-1.695-.027-.417 0-.889.084-1.473.083-.556.25-1 .417-1.389.166-.417.5-.945 1-1.612.5-.695.945-1.195 1.334-1.473.362-.25.722-.5 1.139-.722s.945-.5 1.612-.778a8.491 8.491 0 0 1 2.529-.528c.944-.083 1.722-.056 2.278.139.583.195 1.389.722 2.417 1.556.139.111.25.222.39.333-.222-.722-.39-1.306-.528-1.723-.194-.5-.473-1.111-.862-1.862-.361-.722-.694-1.278-1-1.695a6.005 6.005 0 0 0-.945-1.084c-.278-.25-.834-.584-1.612-.973-.806-.389-1.5-.639-2.084-.722-.639-.111-1.139-.167-1.528-.167-.417-.028-.806-.028-1.195.056-.306 0-.917.167-1.75.472a8.672 8.672 0 0 0-1.25.611l-.25.333c-.195.222-.445.389-.75.445s-.611 0-.89-.167c-.278-.167-.417-.417-.472-.695s0-.556.166-.778l.334-.389c.306-.445 1.056-.861 2.25-1.306 1.084-.417 1.89-.611 2.418-.639.473-.056.945-.083 1.418-.056.528 0 1.194.083 1.945.222.806.139 1.695.445 2.695.945 1 .472 1.75.917 2.223 1.334.444.417.861.861 1.25 1.389s.778 1.195 1.194 2.028.722 1.528.917 2.084c.195.556.445 1.334.75 2.39a31.6 31.6 0 0 0 .722 2.084c.139.445.25.889.39 1.334s.222.75.278.945c.166.222.111.528-.139.917l-.528.389zm-2-1.084c-.195-.278-.362-.556-.528-.778a47.25 47.25 0 0 0-.75-1c-.278-.333-.862-.889-1.75-1.612-.862-.695-1.418-1.084-1.723-1.167-.222-.056-.639-.083-1.278-.056-.694.056-1.278.195-1.75.389a7.607 7.607 0 0 0-1.334.639l-.917.584c-.222.167-.528.528-.917 1.028-.39.528-.639.889-.75 1.139-.083.25-.194.611-.278 1.028-.055.389-.083.695-.055.945 0 .25.083.639.278 1.167.194.5.39.861.611 1.084.25.278.501.5.723.639s.472.278.722.417c.25.139.694.278 1.278.445.501.167.945.25 1.334.25a8.014 8.014 0 0 0 1.083-.139c.306-.083.639-.195 1.001-.333s.694-.306 1.055-.472c.306-.194.834-.639 1.584-1.334.75-.722 1.222-1.195 1.39-1.389.166-.25.306-.5.417-.695.111-.139.278-.417.556-.778zM82.285 5.353c-1.028-.445-1.806-1.139-2.528-2.001-.25-.306-1.639-1.778-1.362-2.306.139-.25.889-.111 1.084 0 .222.111.445.333.611.528.278.333.473.722.667 1.111.389.806.694 1.667 1.222 2.39.306.445 1.028.028.722-.417-.778-1.111-1.083-2.501-1.945-3.584-.639-.806-1.945-1.528-2.862-.722-.861.722-.056 1.834.445 2.529.945 1.306 2.001 2.501 3.501 3.168.528.25.945-.472.445-.695z"/>
      <path d="M78.419 1.713c.695 1.25 1.584 2.417 2.445 3.557.333.417 1.056 0 .722-.417-.89-1.139-1.751-2.306-2.445-3.557-.278-.472-1-.056-.722.417zm3.665 4.417c2.279-.111 4.502-.861 6.614-1.723.694-.278 2.167-.75 2.001-1.751-.445-2.529-7.197 1.528-8.142 1.889-.5.194-.278 1 .222.806 1.028-.389 1.973-.889 2.946-1.362.611-.306 3.139-1.778 3.862-1.167.278.222.084.222-.25.389-.194.111-.417.195-.639.306-.528.222-1.084.417-1.612.639-1.611.584-3.25 1.084-5.002 1.167-.527 0-.555.834 0 .806z"/>
      <path d="M88.783 2.935c-1.778.806-3.612 1.473-5.446 2.112-.5.167-.278.973.222.806 1.918-.695 3.807-1.389 5.669-2.195.472-.222.027-.945-.445-.722z"/>
    </symbol>
    <symbol id="icon-marshrut" viewBox="0 0 154 32">
      <path fill="#fda3c4" d="m3.12 22.465-1.996-3.131L.019 6.809C.982 5.026 4.344 1.355 10.09.938 17.272.416 20.594-.112 28.847.019s92.549.262 95.453.262c2.904 0 17.288-.391 21.115 1.566 3.061 1.566 5.871 4.566 6.894 5.871-.305.261-.731 1.07.006 2.218s1.129 2.914 1.233 3.653c-.406.435-1.219 1.409-1.218 1.827.002.522-2.749.652-1.372 1.305 1.102.522 1.381 2.044 1.383 2.74-1.068.652-3.693 1.983-5.649 2.087s-3.667.565-4.278.783l.003 1.044c.918.174 2.57.574 1.836.783-.916.261-1.835-.391-2.598 0s-1.83 1.174-.913 1.435c.282.24.558.36.806.407.303-.062.631-.114.876-.146-.157.107-.479.221-.876.146-.515.106-.958.244-.804.376.245.209 1.224.522 1.683.652l.767.783h-2.445c-1.345 0-1.068.783-.761 1.174-.356.087-1.283.209-2.14 0-1.071-.261-.611.13-2.445.261-1.467.104-9.444.043-11.94 0 .203-.174.335-.522-.766-.522-1.375 0-2.182 0-3.863.261s-88.379-.262-93.576-.262c-4.157 0 1.126-.646.361-.646-2.393.435-10.683 1.279-14.229 1.174-4.433-.13-8.257-1.435-8.258-1.566 0-.104-.817-.826-1.226-1.174.408.217 1.224.522 1.223 0s-.821-2.044-1.23-2.74l1.219-1.305zm2.925 7.437c-.489 0-.508.522-.456.783l-.993.13c-.483.435-1.357 1.279-.99 1.174s1.069-.391 1.374-.522c.203-.174 1.588-.522 5.501-.522 4.891 0 4.432-.261 4.89-.261s-8.714-.783-9.325-.783z" style="fill:var(--color2, #fda3c4)"/>
    </symbol>
    <symbol id="icon-pink_heard" viewBox="0 0 26 32">
      <path fill="#f40000" stroke="#1f1f1f" stroke-width=".327" d="M26.102 18.852c-.564-.137-2.791-.44-3.448 0l-.164-2.463c.352.117.821.446.821.164 0-.352 1.937.099 1.937.099 0 .629.76 1.003.526 1.296.352-.059 1.124 1.097.328.903zm-2.085-6.948c.141-1.407-2.242-1.87-3.414-1.752l.248-1.414c.293-.176 1.03-.239 2.297.183 1.583.528 2.463 1.576 2.277 2.984-.185 1.402-1.349 2.698-2.111 3.167l-.528-1.056c.352-.117 1.091-.704 1.232-2.111z" style="fill:var(--color3, #f40000);stroke:var(--color4, #1f1f1f)"/>
      <path fill="#fda3c4" d="M6.483 11.023c3.378-1.267 5.253-.134 6.978 1.583.656.581.317.317 1.583-.528s2.756-1.056 3.343-1.056c4.926 0 5.335 4.299 5.102 5.982-.193 1.394-4.222 10.908-10.028 10.556s-7.213-5.454-8.269-6.861-2.931-8.093 1.291-9.676zm-2.791 9.676c-.394 0-.602.137-.657.205 0 .055.066.148.328.082.328-.082.328-.164.328-.287z" style="fill:var(--color2, #fda3c4)"/>
      <path fill="none" stroke="#1f1f1f" stroke-width=".327" d="M6.483 11.023c3.378-1.267 5.253-.134 6.978 1.583.656.581.317.317 1.583-.528s2.756-1.056 3.343-1.056c4.926 0 5.335 4.299 5.102 5.982-.193 1.394-4.222 10.908-10.028 10.556s-7.213-5.454-8.269-6.861-2.931-8.093 1.291-9.676zm-2.791 9.676c-.394 0-.602.137-.657.205 0 .055.066.148.328.082.328-.082.328-.164.328-.287z" style="stroke:var(--color4, #1f1f1f)"/>
      <path fill="#f40000" stroke="#1f1f1f" stroke-width=".327" d="M19.699 9.166c-1.83 1.97-1.935 4.081-1.642 4.433l.411.821.821-1.149c-.328-.164.539-1.993 1.067-2.463 2.252-2.393.61-4.351-.328-4.761.575.657 1.501 1.149-.328 3.119z" style="fill:var(--color3, #f40000);stroke:var(--color4, #1f1f1f)"/>
      <path fill="#1f1f1f" stroke="#1f1f1f" stroke-width=".327" d="M17.072 5.882c.858.643 2.429 1.947 3.074 2.709.62-.575.844-1.931 0-2.494-1.056-.704-1.759-1.935-1.583-2.815s.48-1.176 1.407-.528c.702.49 0 1.349-.528 1.935-.117.176-.317.422.528 0s1.466-.176 1.583 0c.176-2.111-1.416-2.683-3.343-2.287-1.713.352-1.795 2.987-1.139 3.48z" style="fill:var(--color4, #1f1f1f);stroke:var(--color4, #1f1f1f)"/>
      <path fill="none" stroke="#f40000" stroke-width=".327" d="M1.497 16.829c.997-.176 2.639-.176 1.232 1.231C.97 19.819-.262 21.579.618 22.634s2.287 1.231 2.991 0c.704-1.232-.704-2.815-1.407-2.287s-.88 2.463.528 2.639c1.408.176 2.781.509 5.068-.194s2.556 1.196 2.381 1.724c-.176.528-3.226 1.989-3.402 3.396s1.583 2.463 2.639 1.231c1.056-1.231-.704-1.935-1.056-1.231-.281.563.235.586.528.528" style="stroke:var(--color3, #f40000)"/>
      <path fill="#1f1f1f" d="M18.207 14.865c-1.257-.16-1.135-1.431-.352-1.759.12.985 1.114.586 1.407 0 .704.352.601 1.97-1.055 1.759z" style="fill:var(--color4, #1f1f1f)"/>
      <path fill="#1f1f1f" stroke="#1f1f1f" stroke-width=".327" d="M3.937 10.562a.574.574 0 1 1-1.148 0 .574.574 0 0 1 1.148 0z" style="fill:var(--color4, #1f1f1f);stroke:var(--color4, #1f1f1f)"/>
      <path fill="#fff" stroke="#1f1f1f" stroke-width=".327" d="M15.911 9.78a.516.516 0 1 1-1.031-.001.516.516 0 0 1 1.031.001z" style="fill:var(--color5, #fff);stroke:var(--color4, #1f1f1f)"/>
      <path fill="#fda3c4" stroke="#1f1f1f" stroke-width=".327" d="M4.816 26.505a.515.515 0 1 1-1.03 0 .515.515 0 0 1 1.03 0zm17.546-1.994a.515.515 0 1 1-1.03 0 .515.515 0 0 1 1.03 0z" style="fill:var(--color2, #fda3c4);stroke:var(--color4, #1f1f1f)"/>
      <path fill="none" stroke="#1f1f1f" stroke-width=".327" d="m3.62 10.859 2.463 2.639" style="stroke:var(--color4, #1f1f1f)"/>
      <path fill="#fff" stroke="#1f1f1f" stroke-width=".327" d="M8.183 19.292s-4.901 2.27-5.63 2.111-.092-.574.352-.704c.705-.206 3.636-.997 5.278-1.407z" style="fill:var(--color5, #fff);stroke:var(--color4, #1f1f1f)"/>
      <path fill="none" stroke="#1f1f1f" stroke-width=".327" d="m4.665 26.153 4.398-3.519m6.157-12.491-1.349 2.716m4.621 10.432 2.991 1.056" style="stroke:var(--color4, #1f1f1f)"/>
      <path fill="#1f1f1f" d="M3.771 20.739c.028.086-.186.232-.477.326s-.55.1-.578.014c-.028-.086.186-.232.477-.326s.55-.1.578-.014z" style="fill:var(--color4, #1f1f1f)"/>
      <path fill="none" stroke="#f40000" stroke-width=".327" d="M8.886 28.409c-.293.059-.809.035-.528-.528.352-.704 2.111 0 1.056 1.232s-2.815.176-2.639-1.232c.176-1.407 3.226-2.869 3.402-3.396s-.093-2.428-2.381-1.724c-2.287.704-3.66.37-5.068.194s-1.232-2.111-.528-2.639c.357-.268 1.162.177 1.327.588" style="stroke:var(--color3, #f40000)"/>
    </symbol>
    <symbol id="icon-price-899" viewBox="0 0 57 32">
      <path fill="#fff" d="M.276 3.586 3.862 0h49.655l1.655 1.655.828.552.401 18.876-.849.34-.38.095-3.31 3.31-5.517 1.655-1.655 1.655h-1.655V32h-3.862l-3.31-3.31-1.655-2.759-.229-.602H3.949l-1.741-1.054L.553 22.62.277 3.586z" style="fill:var(--color5, #fff)"/>
    </symbol>
    <symbol id="icon-price-1899" viewBox="0 0 57 32">
      <path fill="#fff" d="M.276 3.586 3.862 0h49.655l1.655 1.655.828.552.401 18.876-.849.34-.38.095-3.31 3.31-5.517 1.655-1.655 1.655h-1.655V32h-3.862l-3.31-3.31-1.655-2.759-.229-.602H3.949l-1.741-1.054L.553 22.62.277 3.586z" style="fill:var(--color5, #fff)"/>
    </symbol>
    <symbol id="icon-s" viewBox="0 0 24 32">
      <path d="M.956 28.308c-1.144-1.352.188-3.539 1.926-2.855 2.683.978 5.199 2.229 7.954.628 3.126-1.75 3.593-6.055 1.677-8.907-2.391-3.61-5.508-5.414-4.42-10.278C9.859-.927 19.961-1.52 23.469 5.487c.556 1.088-1.085 2.243-1.818 1.141-4.079-5.762-13.115-.305-8.46 5.433 2.804 3.393 5.148 5.851 4.431 10.566-1.02 7.059-11.452 12.04-16.666 5.681z"/>
    </symbol>
    <symbol id="icon-search" viewBox="0 0 32 32">
      <path d="M26.667 14.667c0-6.624-5.376-12-12-12s-12 5.376-12 12 5.376 12 12 12 12-5.376 12-12zm-2.667 0A9.331 9.331 0 0 1 14.667 24a9.33 9.33 0 0 1-9.333-9.333 9.33 9.33 0 0 1 9.333-9.333A9.33 9.33 0 0 1 24 14.667zm.882 10.525a1.098 1.098 0 0 0-.005 1.552l2.209 2.222c.427.43 1.122.432 1.551.005l.334-.332c.43-.427.432-1.122.005-1.552l-2.209-2.222a1.098 1.098 0 0 0-1.552-.005l-.334.332z"/>
    </symbol>
    <symbol id="icon-shopping-bag" viewBox="0 0 32 32">
      <path stroke-linecap="round" stroke-linejoin="round" stroke-width="2.667" d="M5.401 11.893a1.33 1.33 0 0 1 1.329-1.226h18.539a1.33 1.33 0 0 1 1.33 1.226l1.169 14.56a2.677 2.677 0 0 1-.698 2.022 2.656 2.656 0 0 1-1.959.858H6.89a2.658 2.658 0 0 1-1.959-.858 2.664 2.664 0 0 1-.699-2.022L5.4 11.893h.001z"/>
      <path stroke-linecap="round" stroke-linejoin="round" stroke-width="2.667" d="M21.333 14.667V8a5.332 5.332 0 1 0-10.666 0v6.667"/>
    </symbol>
    <symbol id="icon-title1" viewBox="0 0 29 32">
      <path fill="#fda3c4" d="M.319 3.866c-.065 0-.102-.035-.111-.106-.003-.027-.006-.054-.007-.083a2.41 2.41 0 0 0-.002-.085L.152 2.455c-.003-.036-.006-.072-.007-.106-.002-.036-.002-.071-.002-.104a7.31 7.31 0 0 1 .007-.298c.002-.118.002-.236.002-.355l.007-.355.007-.097.009-.099C.183.98.199.938.222.916.247.894.291.882.352.881h.34c.09.003.135.039.135.106 0 .02-.003.04-.009.059a.35.35 0 0 0-.021.109c-.002.035-.002.07-.002.106l-.009.397a16.085 16.085 0 0 0 .002.822c.002.05.006.084.012.102.008.017.028.026.059.026H.89l.043-.005c.033-.003.066-.006.099-.007l.099-.002h.033l.033-.002a8.23 8.23 0 0 0 .066-.012.107.107 0 0 0 .04-.019.062.062 0 0 0 .017-.033.279.279 0 0 0 .005-.057l-.002-.17a6.304 6.304 0 0 1 .017-.468c.005-.066.007-.132.007-.199.002-.068.002-.136.002-.203v-.317a.165.165 0 0 0-.005-.038l-.005-.038-.002-.026c0-.022.005-.044.014-.066.022-.047.057-.071.104-.071h.007c.054.003.087.032.099.085a.305.305 0 0 1 .005.052 23.175 23.175 0 0 1-.024 1.212l-.002.118a1.76 1.76 0 0 0 .009.2c0 .011.003.021.009.031.017.03.026.059.026.087a.146.146 0 0 1-.019.071.082.082 0 0 0-.009.04l.002.033.005.031.097.86c.002.009.002.019.002.028.002.009.002.019.002.028a.131.131 0 0 1-.031.078.088.088 0 0 1-.064.035h-.014a.113.113 0 0 1-.071-.024.105.105 0 0 1-.035-.071 5.709 5.709 0 0 1-.038-.288l-.033-.324-.031-.305a.142.142 0 0 0-.012-.05c-.003-.008-.011-.012-.024-.012l-.047.005a4.332 4.332 0 0 1-.199.014l-.196.009a.178.178 0 0 0-.054.009c-.008.003-.012.016-.012.038l.035.768v.113c-.008.076-.046.113-.113.113-.03.002-.059.002-.087.002H.553l-.234-.002zm2.531-.23c.035 0 .065-.024.092-.071a1.303 1.303 0 0 0 .05-.122c.057-.176.099-.355.125-.534a4.51 4.51 0 0 0 .052-.551v-.017c0-.197-.018-.386-.054-.567a4.3 4.3 0 0 0-.151-.567.22.22 0 0 1-.009-.021c-.027-.043-.062-.064-.106-.064a.127.127 0 0 0-.099.052c-.027.036-.047.074-.061.113s-.027.08-.038.121a2.82 2.82 0 0 0-.069.404 10.456 10.456 0 0 0-.036.504v.095a3.522 3.522 0 0 0 .173 1.097.264.264 0 0 0 .04.071c.03.039.061.059.092.059zm-.418.23a.185.185 0 0 1-.097-.026.48.48 0 0 1-.175-.189 1.15 1.15 0 0 1-.057-.149 4.16 4.16 0 0 1-.118-.539 4.115 4.115 0 0 1-.031-.795c.008-.14.02-.278.035-.414.016-.137.04-.273.073-.409a.889.889 0 0 1 .189-.366c.019-.024.039-.043.061-.057s.049-.023.08-.026L2.52.887a1.229 1.229 0 0 1 .426.032c.061.017.111.046.149.087s.066.091.085.151c.044.139.083.278.116.418a2.854 2.854 0 0 1 .085.57c.005.046.007.091.007.137v.052a5.357 5.357 0 0 1-.057.603 3.391 3.391 0 0 1-.161.65.602.602 0 0 1-.033.073.323.323 0 0 1-.265.191 1.18 1.18 0 0 1-.118.012c-.038.002-.076.002-.116.002l-.208-.002zm2.041-.23c.032 0 .062-.006.092-.017s.06-.024.09-.038a.559.559 0 0 0 .106-.066.323.323 0 0 0 .083-.095.43.43 0 0 0 .054-.142c.014-.057.023-.127.026-.21l-.002-.04c-.002-.011-.002-.021-.002-.031v-.066l-.002-.033c-.005-.104-.045-.156-.121-.156a.269.269 0 0 0-.071.012 2.302 2.302 0 0 1-.168.045 2.508 2.508 0 0 1-.17.028c-.024.003-.039.01-.047.021-.006.009-.009.024-.009.045l-.012.39h.002v.123l.002.123c.002.035.008.058.019.069.011.013.034.023.069.031a.26.26 0 0 0 .061.007zm-.128-1.052a.499.499 0 0 1 .064-.028c.022-.009.044-.02.066-.031a.474.474 0 0 0 .163-.123.438.438 0 0 0 .092-.184 2.42 2.42 0 0 0 .066-.52c0-.049-.002-.098-.007-.147s-.011-.099-.019-.149a.52.52 0 0 0-.069-.175.249.249 0 0 0-.095-.08.251.251 0 0 0-.224-.004.057.057 0 0 0-.026.021c-.005.006-.007.016-.007.028l-.017.227c-.003.054-.006.106-.007.158v.158c0 .121.002.242.005.362s.005.241.005.364v.09l.002.014.007.019zm-.109 1.284c-.049 0-.098-.002-.147-.005a.87.87 0 0 1-.244-.054l-.092-.043a.112.112 0 0 1-.061-.066.305.305 0 0 1-.012-.087L3.675 3.4c-.002-.069-.002-.139-.002-.21l.019-.766-.002-.269-.007-.272-.002-.139c0-.11.003-.221.009-.331l.017-.331c.002-.041.011-.072.028-.092a.196.196 0 0 1 .097-.052c.054-.014.107-.027.161-.038s.108-.018.163-.021l.097-.002c.093 0 .186.007.279.021a.509.509 0 0 1 .447.428 1.642 1.642 0 0 1 .026.53 3.823 3.823 0 0 1-.019.184l-.026.161a1.057 1.057 0 0 1-.04.154.933.933 0 0 1-.043.083l-.05.083c.019.006.036.011.052.014s.031.008.045.014a.376.376 0 0 1 .137.106.297.297 0 0 1 .066.158c.009.066.014.133.014.201l-.002.066c-.001.03-.004.061-.007.095a2.059 2.059 0 0 1-.007.092l-.007.066a.489.489 0 0 1-.149.298c-.076.068-.156.123-.241.165s-.179.065-.281.069c-.036.002-.072.002-.106.002-.033.002-.068.002-.104.002zm2.107 0c-.036-.002-.064-.012-.083-.031-.019-.017-.028-.042-.028-.073l.005-.035a.37.37 0 0 0 .009-.08l.007-.08a5.608 5.608 0 0 0 .014-.345c.003-.072.005-.147.005-.225.002-.079.002-.151.002-.217.002-.068.002-.126.002-.175l.002-.095-.002-.229c-.002-.082-.002-.165-.002-.251v-.061c0-.009-.003-.015-.009-.017a.053.053 0 0 0-.017.024l-.007.026-.095.345-.099.345c-.046.153-.088.305-.128.456s-.088.295-.147.43l-.045.106c-.014.034-.03.069-.047.102-.025.052-.062.078-.111.078l-.035-.005c-.068-.014-.104-.06-.109-.137v-.028l.005-.028c.009-.176.021-.356.033-.539l.043-.558c.013-.167.021-.333.026-.496.005-.165.007-.332.007-.499v-.191l-.002-.182-.002-.208a.108.108 0 0 1 .028-.073.115.115 0 0 1 .071-.033h.005c.027 0 .05.008.069.024s.032.039.038.069a.26.26 0 0 1 .005.047l.002.047a3.198 3.198 0 0 1 .007.271l-.002.425c0 .181-.006.361-.017.539l-.035.537a.732.732 0 0 0-.007.069c-.002.022-.002.045-.002.069l.002.045.007.045.014-.035a5.787 5.787 0 0 0 .525-2.035.138.138 0 0 1 .033-.08.145.145 0 0 1 .087-.031c.046-.003.091-.006.135-.007l.135-.002c.066 0 .131.002.194.007a.126.126 0 0 1 .087.038.118.118 0 0 1 .033.087v.054l.002.118c.002.038.002.076.002.116v.047a5.185 5.185 0 0 0-.005.22v.482l.007.251.002.111v.038l-.002.111-.002.154-.005.182-.005.187-.002.17c-.002.055-.002.102-.002.139 0 .049-.002.097-.007.144a3.638 3.638 0 0 0-.012.147.28.28 0 0 1-.014.085c-.017.06-.057.09-.118.09l-.222.005c-.072.002-.147.002-.222.002zm1.029-.002c-.065 0-.102-.035-.111-.106-.003-.027-.006-.054-.007-.083a2.41 2.41 0 0 0-.002-.085l-.047-1.137c-.003-.036-.006-.072-.007-.106-.002-.036-.002-.071-.002-.104a7.31 7.31 0 0 1 .007-.298c.002-.118.002-.236.002-.355l.007-.355.007-.097.009-.099c.008-.061.024-.103.047-.125.025-.022.069-.034.13-.035h.34c.09.003.135.039.135.106 0 .02-.003.04-.009.059a.35.35 0 0 0-.021.109c-.002.035-.002.07-.002.106l-.009.397a16.085 16.085 0 0 0 .002.822c.002.05.006.084.012.102.008.017.028.026.059.026h.031l.043-.005c.033-.003.066-.006.099-.007l.099-.002h.033l.033-.002a8.23 8.23 0 0 0 .066-.012.107.107 0 0 0 .04-.019.062.062 0 0 0 .017-.033.279.279 0 0 0 .005-.057l-.002-.17a6.304 6.304 0 0 1 .017-.468c.005-.066.007-.132.007-.199.002-.068.002-.136.002-.203v-.317a.165.165 0 0 0-.005-.038l-.005-.038-.002-.026c0-.022.005-.044.014-.066.022-.047.057-.071.104-.071h.007c.054.003.087.032.099.085a.305.305 0 0 1 .005.052 23.175 23.175 0 0 1-.024 1.212l-.002.118a1.76 1.76 0 0 0 .009.2c0 .011.003.021.009.031.017.03.026.059.026.087a.146.146 0 0 1-.019.071.082.082 0 0 0-.009.04l.002.033.005.031.097.86c.002.009.002.019.002.028.002.009.002.019.002.028a.131.131 0 0 1-.031.078.088.088 0 0 1-.064.035h-.014a.113.113 0 0 1-.071-.024.105.105 0 0 1-.035-.071 5.709 5.709 0 0 1-.038-.288l-.033-.324-.031-.305a.142.142 0 0 0-.012-.05c-.003-.008-.011-.012-.024-.012l-.047.005a4.332 4.332 0 0 1-.199.014l-.196.009a.178.178 0 0 0-.054.009c-.008.003-.012.016-.012.038l.035.768v.113c-.008.076-.046.113-.113.113-.03.002-.059.002-.087.002h-.085l-.234-.002zm1.795 0c-.06 0-.097-.032-.111-.095a.158.158 0 0 1-.007-.047l-.05-1.019.002-.269v-.111c.002-.038.002-.074.002-.109.002-.036.002-.069.002-.099v-.139A26.23 26.23 0 0 1 9 1.493v-.47c0-.043.008-.074.024-.095.017-.022.046-.035.087-.04.035-.003.069-.006.102-.007l.102-.002.111.002c.038.001.075.004.111.007.041.003.071.016.09.038.019.02.031.051.035.092.002.013.002.027.002.043v.603l.002.572v.059c.014-.013.023-.024.026-.035a19.147 19.147 0 0 1 .456-1.248l.017-.038a.184.184 0 0 1 .019-.04.105.105 0 0 1 .092-.047h.014c.006 0 .013.002.019.005.046.017.069.052.069.104a.14.14 0 0 1-.007.047l-.017.045a23.623 23.623 0 0 0-.522 1.435 2.103 2.103 0 0 1-.057.142.147.147 0 0 0-.012.05c0 .016.006.035.019.057.088.158.172.301.251.43.08.131.165.254.255.369.021.027.046.05.076.071l.021.014.024.019a.11.11 0 0 1 .04.085.095.095 0 0 1-.019.059.098.098 0 0 1-.087.047.125.125 0 0 1-.047-.012c-.038-.017-.072-.039-.102-.066s-.058-.057-.085-.09c-.06-.08-.119-.164-.177-.251s-.117-.189-.177-.307a.26.26 0 0 0-.028-.045l-.04-.057c-.002.022-.002.043-.002.061v.057l.002.116a25.572 25.572 0 0 0 .021.272c.003.054.005.107.005.161v.038c-.003.043-.014.073-.033.092-.017.021-.046.032-.087.033-.03.002-.06.002-.09.002h-.09l-.246-.002zm2.486.002c-.036-.002-.064-.012-.083-.031-.019-.017-.028-.042-.028-.073l.005-.035a.37.37 0 0 0 .009-.08l.007-.08a5.608 5.608 0 0 0 .014-.345c.003-.072.005-.147.005-.225.002-.079.002-.151.002-.217.002-.068.002-.126.002-.175l.002-.095-.002-.229c-.002-.082-.002-.165-.002-.251v-.061c0-.009-.003-.015-.009-.017a.053.053 0 0 0-.017.024l-.007.026-.095.345-.099.345c-.046.153-.088.305-.128.456s-.088.295-.147.43l-.045.106c-.014.034-.03.069-.047.102-.025.052-.062.078-.111.078l-.035-.005c-.068-.014-.104-.06-.109-.137v-.028l.005-.028c.009-.176.021-.356.033-.539l.043-.558c.013-.167.021-.333.026-.496.005-.165.007-.332.007-.499v-.191l-.002-.182-.002-.208a.108.108 0 0 1 .028-.073.115.115 0 0 1 .071-.033h.005c.027 0 .05.008.069.024s.032.039.038.069a.26.26 0 0 1 .005.047l.002.047a3.198 3.198 0 0 1 .007.271l-.002.425c0 .181-.006.361-.017.539l-.035.537a.732.732 0 0 0-.007.069c-.002.022-.002.045-.002.069l.002.045.007.045.014-.035a5.787 5.787 0 0 0 .525-2.035.138.138 0 0 1 .033-.08.145.145 0 0 1 .087-.031c.046-.003.091-.006.135-.007l.135-.002c.066 0 .131.002.194.007a.126.126 0 0 1 .087.038.118.118 0 0 1 .033.087v.054l.002.118c.002.038.002.076.002.116v.047a5.185 5.185 0 0 0-.005.22v.482l.007.251.002.111v.038l-.002.111-.002.154-.005.182-.005.187-.002.17c-.002.055-.002.102-.002.139 0 .049-.002.097-.007.144a3.638 3.638 0 0 0-.012.147.28.28 0 0 1-.014.085c-.017.06-.057.09-.118.09l-.222.005c-.072.002-.147.002-.222.002zm9.594 27.48-.15-.214-.083-.857c.073-.122.326-.373.758-.402.541-.036.791-.072 1.412-.063s3.291.018 3.509.018c.219 0 1.301-.027 1.589.107.23.107.442.312.519.402-.023.018-.055.073 0 .152s.085.199.093.25c-.031.03-.092.096-.092.125 0 .036-.207.045-.103.089.083.036.104.14.104.187-.08.045-.278.136-.425.143s-.276.039-.322.054v.071c.069.012.193.039.138.054-.069.018-.138-.027-.196 0s-.138.08-.069.098a.138.138 0 0 0 .061.028l.066-.01a.102.102 0 0 1-.066.01c-.039.007-.072.017-.06.026a.58.58 0 0 0 .127.045l.058.054h-.184c-.101 0-.08.054-.057.08a.423.423 0 0 1-.161 0c-.081-.018-.046.009-.184.018-.11.007-.711.003-.899 0 .015-.012.025-.036-.058-.036-.104 0-.115 0-.242.018s-3.026-.018-3.417-.018c-.313 0 .085-.044.027-.044-.18.03-.804.087-1.071.08-.334-.009-.622-.098-.622-.107a.575.575 0 0 0-.092-.08c.031.015.092.036.092 0s-.062-.14-.093-.187l.092-.089zm.22.509c-.037 0-.038.036-.034.054l-.075.009c-.036.03-.102.087-.075.08s.08-.027.103-.036c.015-.012.12-.036.414-.036.368 0 .334-.018.368-.018s-.656-.054-.702-.054z" style="fill:var(--color2, #fda3c4)"/>
      <path fill="#fff" d="m22.587 31.179-.027-.001h-.027l-.031.001c-.013 0-.024-.002-.034-.007s-.019-.01-.027-.017a.114.114 0 0 1-.029-.055 1.07 1.07 0 0 1-.02-.111l-.007-.051c-.002-.017-.002-.036-.003-.054l-.001-.057v-.062l.001-.068v-.033a.331.331 0 0 1 .023-.13.542.542 0 0 1 .047-.089.084.084 0 0 1 .072-.039h.057l.031.001a.15.15 0 0 1 .124.073.11.11 0 0 1 .012.036l.001.009a.048.048 0 0 1-.003.018c-.002.007-.006.013-.01.017s-.01.005-.017.005h-.004c-.007-.001-.012-.003-.017-.007s-.007-.011-.007-.018v-.004c0-.018-.005-.032-.016-.042s-.022-.018-.037-.024l-.01-.004-.009-.001c-.004 0-.008.001-.012.004s-.007.007-.011.013c-.017.026-.031.053-.041.082s-.015.058-.016.09l-.001.101a2.855 2.855 0 0 0 .005.177.631.631 0 0 0 .01.076l.015.077.001.006.002.006c.007.018.017.026.031.026a.045.045 0 0 0 .018-.004c.013-.005.024-.011.035-.017s.02-.014.028-.024a.116.116 0 0 0 .029-.074l.001-.021-.002-.035a.417.417 0 0 0-.004-.035l-.001-.012-.001-.013v-.006l.001-.006c.001-.008.004-.014.009-.018s.011-.007.018-.007h.001c.007 0 .012.002.017.007s.008.01.009.018l.006.055a.493.493 0 0 1 .003.055l-.001.021-.002.021a.155.155 0 0 1-.05.098c-.018.016-.037.029-.058.04s-.044.015-.07.015h-.002zm.299.003c-.017 0-.026-.009-.029-.028l-.002-.022-.001-.022-.005-.134a3.04 3.04 0 0 1-.003-.135l-.001-.039-.001-.039.002-.307c.001-.027.014-.042.039-.045l.04-.004a.536.536 0 0 1 .04-.002h.011l.012.001c.013.001.022.004.028.009s.009.014.011.026c.009.048.022.1.037.155s.032.11.049.166l.004.01.005-.005.002-.005c.013-.058.028-.115.043-.17s.031-.107.046-.157c.005-.019.015-.029.03-.029h.004c.008.001.015.005.02.012s.008.015.009.025v.142l-.001.039.001.09.004.09.005.104.003.104.002.037a.46.46 0 0 1 .002.038l.002.028c0 .009.002.019.005.028l.001.008c0 .007-.003.013-.007.018s-.01.009-.017.011l-.007.001c-.006 0-.011-.002-.016-.006s-.009-.009-.011-.016l-.004-.014-.001-.013-.012-.24a6.6 6.6 0 0 1-.007-.24l-.001-.006-.002-.006a.206.206 0 0 0-.012.035l-.009.035-.019.08a1.88 1.88 0 0 0-.021.094l-.005.014c-.003.005-.007.009-.011.012s-.009.004-.013.004a.027.027 0 0 1-.023-.013l-.005-.01-.004-.012-.035-.108a1.996 1.996 0 0 1-.033-.11l-.002-.006c-.001-.002-.001-.004-.003-.005h-.001a.002.002 0 0 0-.002.002l-.001.045v.045l.002.069.002.069c0 .072.001.142.005.213l.001.021.002.022.001.007c0 .011-.003.019-.009.024s-.014.009-.025.01c-.018.002-.035.003-.053.002s-.035 0-.053.001h-.002zm.709-.058c.009 0 .017-.006.024-.018l.007-.016.006-.016c.015-.046.026-.092.033-.138s.012-.094.014-.143v-.004c0-.051-.004-.1-.014-.147a1.477 1.477 0 0 0-.038-.148l-.002-.006c-.007-.011-.016-.017-.028-.017-.004 0-.009.001-.014.004s-.008.005-.012.01a.118.118 0 0 0-.016.029l-.01.031a.64.64 0 0 0-.018.105l-.008.106-.001.024v.024a.977.977 0 0 0 .037.264l.007.02a.077.077 0 0 0 .01.018c.008.01.016.015.024.015zm-.108.059c-.009 0-.018-.002-.025-.007s-.014-.009-.02-.015c-.011-.01-.019-.021-.025-.034s-.011-.025-.015-.039a.874.874 0 0 1-.037-.346.983.983 0 0 1 .028-.213.233.233 0 0 1 .049-.095c.005-.006.01-.011.016-.015s.013-.006.021-.007l.033-.002.034-.001a.256.256 0 0 1 .077.011c.016.005.029.012.039.023s.017.024.022.039c.011.036.021.072.03.109s.015.073.019.111l.003.037a.434.434 0 0 1 .002.036v.013a1.309 1.309 0 0 1-.015.156.976.976 0 0 1-.042.169c-.003.007-.005.013-.009.019a.082.082 0 0 1-.069.049.155.155 0 0 1-.031.003l-.03.001-.054-.001zm.486.005-.026-.001a1.772 1.772 0 0 1-.025-.003c-.009-.002-.016-.006-.02-.011s-.006-.012-.007-.022a3.429 3.429 0 0 1-.012-.286l.001-.047.002-.126.004-.127.003-.04.004-.037v-.002c0-.005-.001-.009-.004-.012s-.006-.004-.012-.005l-.031-.002h-.012l-.011.001-.011-.001-.01-.001a.05.05 0 0 1-.015-.009.018.018 0 0 1-.005-.016v-.002c0-.011.006-.019.017-.025a.047.047 0 0 1 .017-.003l.007.001.124.002h.167l.024.003c.007.002.012.006.016.01s.006.01.006.016l-.001.004c-.001.007-.004.012-.009.017s-.011.006-.019.007h-.054l-.012.001-.006.002-.003.006-.001.011a1.056 1.056 0 0 0-.009.112l-.002.112v.101l-.001.044v.101c0 .02.001.038.003.057.002.02.002.04.002.059s.002.04.005.06l.001.004v.004l-.001.012c-.001.009-.004.015-.009.02s-.01.008-.019.009L24 31.19l-.029.001zm.459-.334.008-.001.011-.002.004-.001.003-.001c.022-.005.038-.015.049-.029s.018-.032.021-.053c.002-.012.004-.023.004-.034s.002-.019.003-.025l.001-.006v-.006l-.001-.011v-.01a.503.503 0 0 0-.024-.134c-.006-.017-.014-.031-.026-.041s-.025-.019-.041-.025l-.01-.002a.036.036 0 0 0-.01-.002l-.005-.001c-.007 0-.01.004-.01.012l.001.026.002.083.002.072v.158c0 .013.001.021.003.026s.007.007.015.007zm-.14.333-.007-.001-.006-.001c-.022-.004-.034-.017-.034-.04l-.002-.082-.001-.084v-.314l-.001-.061-.002-.067-.001-.067v-.01c0-.017.004-.029.01-.035s.018-.011.036-.012l.023-.001.045.001h.049l.024.001c.035.004.064.015.088.033s.042.044.052.079c.016.049.025.1.027.151v.021l-.001.025-.004.029a2.487 2.487 0 0 0-.006.035c-.003.015-.008.03-.015.045s-.017.027-.029.038-.026.021-.044.028-.037.011-.059.011c-.008 0-.013.001-.015.002s-.003.005-.003.011v.048l-.001.044v.064l.001.02.002.055c0 .016-.008.026-.025.03l-.01.001-.009.001-.039.001-.039.001h-.004zm.417.007c-.015 0-.025-.003-.031-.008s-.009-.015-.009-.031l-.001-.021v-.021l.001-.024.001-.07c0-.022 0-.045-.002-.067s-.001-.045-.001-.067l.002-.055v-.039l.003-.085a2.41 2.41 0 0 0 .002-.085c0-.027 0-.053-.002-.08l-.001-.034v-.027l.001-.028c.001-.012.004-.02.008-.025s.013-.009.024-.01a.285.285 0 0 1 .051-.003h.136l.102.002.009.001.009.002c.003.001.01.005.013.01a.027.027 0 0 1 .005.015v.004c-.002.013-.009.021-.022.024l-.007.001h-.01l-.015-.001h-.048l-.034.001-.015-.001-.015.001-.015.001c-.008 0-.012.004-.012.012l-.001.029.002.066.001.067-.001.081a.826.826 0 0 1-.004.074l-.001.013v.022l.001.009c.001.002.001.004.003.005l.007.003a.049.049 0 0 0 .013.001l.014.001.028-.001.015.001.015.003c.007.002.011.006.015.011s.006.01.005.016l-.001.007c-.001.006-.004.011-.009.016s-.01.006-.016.006l-.006-.001-.012-.001-.012-.001-.028.001h-.018c-.005 0-.009.001-.011.004s-.002.006-.002.011v.005l.001.026v.025l-.001.046-.001.034-.001.027v.024c0 .009.001.014.002.017s.005.004.011.004l.141-.006c.006 0 .011.001.015.003.012.005.018.013.018.025v.001c0 .011-.006.019-.017.024l-.013.004-.013.001-.077.003-.075.002h-.01l-.013.001h-.015l-.04.001-.04.002zm.546-.002-.026-.001a1.772 1.772 0 0 1-.025-.003c-.009-.002-.016-.006-.02-.011s-.006-.012-.007-.022l-.009-.143c-.003-.048-.003-.095-.003-.143l.001-.047.002-.126.004-.127.003-.04.004-.037v-.002c0-.005-.001-.009-.004-.012s-.006-.004-.012-.005l-.031-.002h-.012l-.011.001-.011-.001-.01-.001a.05.05 0 0 1-.015-.009.024.024 0 0 1-.005-.016v-.002c0-.011.006-.019.017-.025a.047.047 0 0 1 .017-.003l.007.001.124.002h.167l.024.003c.007.002.012.006.016.011s.006.01.006.016l-.001.004c-.001.007-.004.012-.009.017s-.011.006-.019.007h-.054l-.012.001-.006.002-.003.006-.001.011a1.056 1.056 0 0 0-.009.112l-.002.112v.101l-.001.044v.101c0 .02.001.038.003.057.002.02.002.04.002.059s.002.04.005.06l.001.004v.004l-.001.012c-.001.009-.004.015-.009.02s-.01.008-.019.009l-.029.004-.029.001zm.46-.441c-.008 0-.013.002-.015.007s-.003.013-.003.026l-.001.087v.071l-.003.072-.002.083-.001.026c0 .008.003.012.01.012l.005-.001.01-.002a.036.036 0 0 0 .01-.002.107.107 0 0 0 .067-.066.504.504 0 0 0 .025-.134v-.009l.001-.012v-.006l-.001-.006-.003-.024-.004-.034c-.003-.021-.01-.038-.021-.053s-.027-.024-.049-.03l-.003-.001-.004-.001-.011-.002-.008-.001zm-.138-.334h.004l.039.001.039.001.009.001.01.001c.016.004.024.014.024.03l-.003.055-.001.02v.064l.001.044v.048c0 .006.001.01.003.011s.007.002.015.002c.023 0 .042.004.059.012s.032.016.043.028c.012.011.022.025.029.039s.012.029.015.044l.005.035.004.029.001.026v.02a.609.609 0 0 1-.028.151.154.154 0 0 1-.141.111l-.024.001h-.094l-.023-.001c-.017-.001-.029-.005-.036-.012s-.009-.018-.01-.036v-.01l.001-.067.002-.067.001-.061.001-.062v-.253l.001-.084c0-.028.001-.055.003-.081 0-.023.012-.036.034-.04l.006-.001.007-.001zm.885.717a.067.067 0 0 0 .024-.004l.023-.01.028-.017a.085.085 0 0 0 .022-.024c.006-.01.011-.022.014-.037s.006-.033.007-.055l-.001-.01-.001-.008v-.017l-.001-.009c-.001-.027-.012-.041-.031-.041a.566.566 0 0 1-.106.021c-.006.001-.01.003-.012.005s-.002.006-.002.012l-.003.101h.001v.032l.001.032c0 .009.002.015.005.018s.009.006.018.008a.088.088 0 0 0 .016.002zm-.032-.273.017-.007.017-.008a.12.12 0 0 0 .066-.08.785.785 0 0 0 .017-.135l-.002-.038-.005-.039-.007-.023a.226.226 0 0 0-.011-.022c-.007-.009-.015-.016-.024-.021s-.019-.007-.029-.007a.068.068 0 0 0-.029.006c-.003.002-.006.003-.007.006l-.002.007-.004.059-.002.041v.041l.001.094.001.094v.023l.001.004.002.005zm-.03.333-.038-.001a.238.238 0 0 1-.063-.015l-.024-.011c-.008-.004-.013-.01-.016-.017s-.003-.015-.003-.023l-.001-.055v-.055l.005-.199v-.07l-.002-.07-.001-.036c0-.029.001-.057.003-.086l.005-.086c0-.011.003-.019.007-.024s.013-.01.025-.013l.042-.01a.2.2 0 0 1 .042-.005h.025c.024 0 .048.002.072.006.031.005.056.017.076.036s.033.044.04.076l.007.045c.002.015.002.03.002.045a.37.37 0 0 1-.003.047l-.005.048-.007.042a.262.262 0 0 1-.011.04l-.011.021-.013.021.013.004.012.004c.015.007.027.016.035.028s.015.025.017.041a.455.455 0 0 1 .004.052l-.001.017-.002.024-.002.024-.002.017c-.002.016-.006.03-.013.042s-.015.024-.026.035c-.02.017-.041.032-.063.043s-.046.017-.073.017h-.028c-.009-.001-.018.001-.027.001zm.517.001-.027-.001h-.058c-.013 0-.024-.002-.034-.007s-.019-.01-.027-.017a.114.114 0 0 1-.029-.055l-.012-.055c-.004-.018-.006-.037-.009-.056l-.007-.052-.003-.054-.001-.057v-.062l.001-.068v-.033a.331.331 0 0 1 .023-.13.542.542 0 0 1 .047-.089.084.084 0 0 1 .072-.039h.057l.031.001a.148.148 0 0 1 .124.073.11.11 0 0 1 .012.036l.001.009a.048.048 0 0 1-.003.018c-.002.007-.006.013-.01.017s-.01.005-.017.005h-.004c-.007-.001-.012-.003-.017-.007s-.007-.011-.007-.018v-.004c0-.018-.005-.032-.016-.042s-.022-.018-.037-.024l-.01-.004-.009-.001c-.005 0-.008.001-.012.004s-.007.007-.011.013c-.017.026-.031.053-.041.082s-.015.058-.016.09l-.001.101a2.855 2.855 0 0 0 .005.178.631.631 0 0 0 .01.076l.015.077.001.006.002.006c.007.018.017.026.031.026a.045.045 0 0 0 .018-.004c.013-.005.024-.011.035-.017s.02-.014.028-.024a.116.116 0 0 0 .029-.074l.001-.021-.002-.035a.417.417 0 0 0-.004-.035l-.001-.012-.001-.013v-.006l.001-.006c.001-.008.004-.014.009-.018s.011-.007.018-.007h.001c.007 0 .012.002.017.007s.008.01.009.018l.006.055a.493.493 0 0 1 .003.055l-.001.021-.002.021c-.002.02-.007.038-.016.054s-.02.031-.034.044c-.018.016-.037.029-.058.04s-.044.015-.07.015h-.002zm.299.008c-.015 0-.025-.003-.031-.008s-.009-.015-.009-.031l-.001-.021v-.021l.001-.024.001-.07-.002-.067-.001-.067.002-.055V30.8l.003-.085a2.41 2.41 0 0 0 .002-.085c0-.027 0-.053-.002-.08l-.001-.034v-.027l.001-.028c.001-.012.004-.02.008-.025s.013-.009.024-.01a.291.291 0 0 1 .052-.003h.136l.102.002.009.001.009.002c.003.001.01.005.013.01a.027.027 0 0 1 .005.015v.004c-.002.013-.009.021-.022.024l-.007.001h-.01l-.015-.001h-.048l-.034.001-.015-.001-.015.001-.015.001c-.008 0-.012.004-.012.012l-.001.029.002.066.001.067-.001.081a.826.826 0 0 1-.004.074l-.001.013v.022l.001.009c.001.002.001.004.003.005l.007.003a.049.049 0 0 0 .013.001l.014.001.028-.001.015.001.015.003c.007.002.011.006.015.011s.006.01.005.016l-.001.007c-.001.006-.004.011-.009.016s-.01.006-.016.006l-.006-.001-.012-.001-.012-.001-.028.001h-.018c-.005 0-.009.001-.011.004s-.003.006-.003.011v.005l.001.026v.025l-.001.046-.001.034-.001.027v.024c0 .009.001.014.002.017s.005.004.011.004l.141-.006c.006 0 .011.001.015.003.012.005.018.013.018.025v.001c0 .011-.006.019-.017.024l-.013.004-.013.001-.077.003-.075.002h-.01l-.013.001h-.015l-.04.001-.04.002z" style="fill:var(--color5, #fff)"/>
      <path fill="#1f1f1f" d="M6.873 3.963c.02-.152.047-.316.161-.431.097-.098.243-.149.377-.095.151.061.213.213.293.34.047.076.136.184.243.162.072-.017.102-.091.124-.152.04-.1.064-.213.149-.289.094-.083.228-.073.327-.002.134.093.171.252.283.365.079.078.176.071.253-.01.062-.069.079-.159.126-.237.077-.127.231-.157.36-.078.151.095.169.286.136.443-.012.064-.119.049-.117-.015 0-.073.007-.152-.017-.223-.032-.091-.146-.164-.226-.081-.045.047-.057.12-.087.176a.47.47 0 0 1-.126.154c-.226.169-.416-.039-.526-.223-.06-.1-.213-.294-.32-.132-.057.083-.069.191-.117.279-.117.223-.367.191-.518.017-.097-.11-.144-.321-.298-.372-.238-.076-.317.247-.337.404-.017.083-.154.086-.144 0zM.788 3.349v.766H.646v-.328H.25v.328H.108v-.766H.25v.316h.396v-.316h.142zm.569.777c-.078 0-.148-.017-.211-.05s-.112-.081-.148-.141a.39.39 0 0 1-.054-.202.38.38 0 0 1 .202-.342c.063-.033.133-.051.211-.051s.148.017.211.051a.376.376 0 0 1 .202.342.382.382 0 0 1-.202.343.436.436 0 0 1-.211.05zm0-.125c.051 0 .097-.011.138-.034s.073-.055.096-.096c.023-.042.035-.088.035-.139s-.012-.097-.035-.138a.234.234 0 0 0-.096-.096.288.288 0 0 0-.276 0c-.041.023-.073.055-.096.096s-.035.087-.035.138.012.097.035.139c.023.041.055.073.096.096s.087.034.138.034zm1.075-.284c.049.013.086.036.112.068s.038.071.038.118c0 .067-.025.119-.074.157s-.121.056-.216.056h-.363V3.35h.343c.086 0 .153.017.201.051s.072.083.072.146a.18.18 0 0 1-.113.171zm-.364-.041h.19c.046 0 .081-.009.105-.027s.036-.045.036-.081c0-.036-.012-.063-.036-.081s-.059-.028-.105-.028h-.19v.218zm.219.329c.101 0 .151-.038.151-.114 0-.074-.05-.112-.151-.112h-.219v.225h.219zm.458-.656h.14v.544l.412-.544h.132v.766h-.14v-.543l-.412.543h-.132v-.766zm1.579 0v.766h-.142v-.328h-.396v.328h-.142v-.766h.142v.316h.396v-.316h.142zm.498.443H4.68v.323h-.14v-.766h.14v.321h.147l.22-.321h.151l-.262.371.271.395h-.161l-.224-.323zm.483-.443h.14v.544l.412-.544h.132v.766h-.14v-.543l-.412.543h-.132v-.766z" style="fill:var(--color4, #1f1f1f)"/>
    </symbol>
    <symbol id="icon-title2" viewBox="0 0 87 32">
      <path fill="#fda3c4" d="M2.198 27.436c-.425 0-.688-.224-.788-.671a1.15 1.15 0 0 1-.05-.336l-.352-7.231c0-.66.006-1.297.017-1.913v-.788a18.9 18.9 0 0 0 .017-.772c.011-.257.017-.492.017-.705v-.99a180.112 180.112 0 0 1-.034-3.439V7.252c0-.302.056-.526.168-.671.123-.157.33-.252.621-.285a15.37 15.37 0 0 1 1.442-.067 17.801 17.801 0 0 1 1.576.067c.291.022.503.112.638.268.134.145.218.364.252.654.011.089.017.19.017.302v4.278c0 1.342.006 2.695.017 4.06v.419a.573.573 0 0 0 .185-.252c.034-.078.061-.157.084-.235.459-1.353.951-2.757 1.476-4.211a126.506 126.506 0 0 1 1.678-4.412c.045-.089.084-.179.117-.268.034-.101.078-.196.134-.285a.754.754 0 0 1 .654-.336h.101a.29.29 0 0 1 .134.034c.324.123.487.369.487.738 0 .123-.017.235-.05.336s-.073.207-.117.319a151.637 151.637 0 0 0-1.778 4.664 211.195 211.195 0 0 0-1.543 4.463c-.123.358-.252.71-.386 1.057-.123.336-.257.671-.403 1.007a1.04 1.04 0 0 0-.084.352c0 .112.045.246.134.403a96.007 96.007 0 0 0 1.778 3.053c.57.928 1.174 1.801 1.812 2.617.145.19.324.358.537.503.056.034.106.067.151.101l.168.134a.78.78 0 0 1 .285.604.696.696 0 0 1-.134.419.697.697 0 0 1-.621.336.92.92 0 0 1-.336-.084c-.268-.123-.509-.28-.721-.47s-.414-.403-.604-.637c-.425-.57-.844-1.163-1.258-1.778s-.833-1.342-1.258-2.181a1.94 1.94 0 0 0-.201-.319 45.372 45.372 0 0 0-.285-.403 6.278 6.278 0 0 0-.017.436v.403c0 .291.006.565.017.822l.067.788c.034.38.061.761.084 1.141s.034.761.034 1.141v.268c-.022.302-.101.52-.235.654-.123.145-.33.224-.621.235a12.35 12.35 0 0 1-.638.017h-.638L2.2 27.434zm17.538-1.628c.246 0 .464-.168.654-.503.078-.145.14-.291.185-.436.056-.134.112-.28.168-.436.403-1.253.699-2.517.889-3.792.201-1.275.324-2.578.369-3.909v-.117c0-1.398-.129-2.74-.386-4.026a30.389 30.389 0 0 0-1.007-3.875c-.022-.056-.045-.106-.067-.151s-.045-.095-.067-.151c-.19-.302-.442-.453-.755-.453a.865.865 0 0 0-.386.101.81.81 0 0 0-.319.268c-.19.257-.336.526-.436.805s-.19.565-.268.856a19.522 19.522 0 0 0-.487 2.869 79.795 79.795 0 0 0-.218 2.902 6.852 6.852 0 0 0-.034.671v.671c0 1.286.089 2.522.268 3.708s.436 2.366.772 3.54c.056.19.117.369.185.537.067.179.162.347.285.503.212.28.431.419.654.419zm-2.97 1.628c-.257 0-.487-.061-.688-.185a3.192 3.192 0 0 1-.554-.419 3.368 3.368 0 0 1-.688-.923 7.937 7.937 0 0 1-.403-1.057 29.266 29.266 0 0 1-.839-3.825 28.944 28.944 0 0 1-.218-5.637c.056-.995.14-1.974.252-2.936.112-.973.285-1.941.52-2.902a6.348 6.348 0 0 1 1.342-2.6c.134-.168.28-.302.436-.403s.347-.162.57-.185l.906-.067c.302-.022.61-.034.923-.034.358 0 .71.022 1.057.067.347.034.693.101 1.04.201.436.123.788.33 1.057.621s.47.649.604 1.074c.313.984.587 1.974.822 2.969.246.984.419 1.996.52 3.037.034.336.061.671.084 1.007.034.324.05.649.05.973v.369a37.64 37.64 0 0 1-.403 4.278 24.754 24.754 0 0 1-.956 4.077 5.81 5.81 0 0 1-.185.537 4.263 4.263 0 0 1-.235.52c-.369.783-.995 1.236-1.879 1.359-.28.045-.559.073-.839.084-.268.011-.542.017-.822.017l-1.476-.017zm14.503 0-.738-.034h-.738l-.839.017c-.347 0-.66-.061-.939-.185a2.29 2.29 0 0 1-.738-.47c-.201-.201-.369-.431-.503-.688s-.235-.531-.302-.822a24.596 24.596 0 0 1-.319-1.51 80.76 80.76 0 0 0-.252-1.527 20.58 20.58 0 0 1-.185-1.409 59.555 59.555 0 0 1-.084-1.476l-.034-1.56c0-.537-.006-1.102-.017-1.694l.017-1.862v-.906c0-.302.011-.598.034-.889.056-.951.252-1.845.587-2.684s.761-1.65 1.275-2.433c.481-.716 1.141-1.074 1.98-1.074h1.56l.839.017c1.063.034 1.985.425 2.768 1.174.257.246.47.52.638.822.168.291.28.615.336.973l.017.235c0 .19-.022.352-.067.487a.912.912 0 0 1-.285.47.733.733 0 0 1-.453.151h-.101a.8.8 0 0 1-.453-.201c-.123-.123-.185-.291-.185-.503v-.101c0-.492-.145-.872-.436-1.141a3.324 3.324 0 0 0-1.007-.654c-.112-.045-.207-.078-.285-.101s-.157-.034-.235-.034c-.123 0-.229.039-.319.117s-.19.201-.302.369a9.967 9.967 0 0 0-1.107 2.248 8.097 8.097 0 0 0-.436 2.466l-.017 2.751c0 .973.011 1.845.034 2.617s.061 1.515.117 2.231c.056.705.145 1.398.268 2.08a50.799 50.799 0 0 0 .453 2.248.973.973 0 0 0 .05.168c.19.481.47.721.839.721.134 0 .296-.034.487-.101.347-.134.665-.291.956-.47s.548-.397.772-.654c.224-.246.403-.537.537-.872s.212-.716.235-1.141l.017-.57c0-.324-.017-.643-.05-.956a14.187 14.187 0 0 0-.101-.956l-.034-.336a3.308 3.308 0 0 1-.017-.352v-.151c0-.045.006-.095.017-.151a.833.833 0 0 1 .252-.503.663.663 0 0 1 .487-.201h.034a.67.67 0 0 1 .47.185c.134.112.218.274.252.487l.168 1.51c.056.492.084.99.084 1.493a9.86 9.86 0 0 1-.067 1.14c-.056.537-.201 1.029-.436 1.476s-.548.85-.94 1.208c-.492.447-1.023.811-1.594 1.09s-1.208.419-1.913.419h-.05zm11.506.083c-.235 0-.47-.011-.705-.034a4.945 4.945 0 0 1-.688-.084c-.257-.056-.442-.151-.554-.285-.101-.123-.162-.324-.185-.604a154.256 154.256 0 0 1-.252-3.909 89.852 89.852 0 0 1-.084-3.909l.017-1.292c.022-1.152.034-2.298.034-3.439.011-1.152.045-2.315.101-3.49l.067-1.107c.034-.369.073-.705.117-1.007v-.067c0-.145-.034-.252-.101-.319-.056-.067-.162-.112-.319-.134a7.365 7.365 0 0 0-.856-.05h-.319c-.101 0-.201.006-.302.017-.101-.011-.201-.017-.302-.017s-.196-.011-.285-.034c-.168-.045-.302-.129-.403-.252s-.151-.268-.151-.436v-.05c0-.302.157-.531.47-.688.145-.056.296-.084.453-.084l.201.017 3.406.034h4.563c.201 0 .425.028.671.084a.81.81 0 0 1 .436.285.626.626 0 0 1 .168.436l-.017.117a.717.717 0 0 1-.235.453.864.864 0 0 1-.52.185h-1.476c-.134 0-.24.006-.319.017-.067 0-.117.017-.151.05s-.062.089-.084.168a4.608 4.608 0 0 0-.034.302 35.293 35.293 0 0 0-.235 3.07 141.326 141.326 0 0 0-.034 3.053v2.751l-.034 1.191v1.174c0 .526.006 1.051.017 1.577.011.514.039 1.035.084 1.56.045.548.067 1.09.067 1.627 0 .548.045 1.096.134 1.644a.324.324 0 0 1 .017.101v.117l-.017.319c-.034.235-.112.419-.235.554-.112.134-.285.218-.52.252a10.055 10.055 0 0 1-1.61.135zm14.885-1.711c.112 0 .212-.168.302-.503a5.58 5.58 0 0 0 .084-.436c.022-.134.045-.28.067-.436a47.17 47.17 0 0 0 .386-3.792 74.67 74.67 0 0 0 .168-3.909v-.117c0-1.398-.056-2.74-.168-4.026a64.442 64.442 0 0 0-.453-3.875 2.349 2.349 0 0 0-.034-.151.792.792 0 0 0-.017-.151c-.089-.302-.201-.453-.336-.453-.056 0-.112.034-.168.101a.738.738 0 0 0-.151.268c-.078.257-.14.526-.185.805s-.084.565-.117.856a48.704 48.704 0 0 0-.218 2.869c-.045.951-.078 1.918-.101 2.902-.011.224-.017.447-.017.671v.671c0 1.286.039 2.522.117 3.708a74.133 74.133 0 0 0 .419 4.077c.034.179.078.347.134.503.101.28.196.419.285.419zM52.963 14.87c.034-.805.084-1.599.151-2.382.078-.962.201-1.924.369-2.886.179-.995.498-1.862.956-2.6.101-.168.207-.302.319-.403s.246-.162.403-.185l.654-.067c.212-.022.431-.034.654-.034.257 0 .509.022.755.067.257.034.509.101.755.201.313.123.565.33.755.621s.336.649.436 1.074c.224.984.419 1.974.587 2.969.179.984.302 1.996.369 3.037l.067 1.007c.022.324.034.649.034.973v.369a58.388 58.388 0 0 1-.285 4.278 33.295 33.295 0 0 1-.688 4.077c-.045.19-.089.369-.134.537a4.098 4.098 0 0 1-.168.52c-.268.783-.716 1.236-1.342 1.359a3.687 3.687 0 0 1-.604.084c-.19.011-.386.017-.587.017l-1.057-.017a.75.75 0 0 1-.503-.185 2.39 2.39 0 0 1-.386-.419 3.53 3.53 0 0 1-.503-.923 9.65 9.65 0 0 1-.285-1.057 40.876 40.876 0 0 1-.587-3.842 37.067 37.067 0 0 1-.168-2.265 1.24 1.24 0 0 1-.201.017h-.201c-.179 0-.358-.017-.537-.05v1.191a120 120 0 0 0 .034 2.869c0 .537.011 1.057.034 1.56.022.514.034 1.035.034 1.56 0 .257-.006.464-.017.621-.011.168-.034.302-.067.403s-.089.179-.168.235c-.078.067-.185.123-.319.168s-.268.073-.403.084a4.918 4.918 0 0 1-.403.017l-.638-.017c-.179-.022-.308-.101-.386-.235s-.123-.363-.134-.688c-.022-.626-.039-1.269-.05-1.929l-.067-3.271a322.562 322.562 0 0 1-.017-3.271v-7.18c.011-.57.017-1.141.017-1.711s.022-1.141.067-1.711c.011-.19.028-.347.05-.47s.05-.224.084-.302a.411.411 0 0 1 .168-.168c.078-.045.168-.084.268-.117.168-.034.33-.061.487-.084s.313-.034.47-.034c.179.011.33.022.453.034.123 0 .224.028.302.084s.134.151.168.285c.045.123.067.302.067.537 0 .268-.006.52-.017.755l-.034.688c0 .224-.006.459-.017.705v.788c.011.671.017 1.269.017 1.795s.006 1.04.017 1.543v1.46c.268-.056.554-.084.856-.084h.117zm10.459 12.616c-.459 0-.721-.257-.788-.772a11.17 11.17 0 0 1-.05-.604l-.034-.604a203.043 203.043 0 0 0-.134-3.657c-.056-1.23-.089-2.461-.101-3.691 0-.358-.011-.716-.034-1.074s-.034-.716-.034-1.074l.034-8.405c.022-.749.38-1.158 1.074-1.225.369-.045.733-.078 1.09-.101.369-.034.738-.05 1.107-.05h.302c.101 0 .207.006.319.017.358.022.61.101.755.235s.246.375.302.721c.257 1.32.598 2.729 1.023 4.228.425 1.488.878 3.003 1.359 4.546l.117.268c.078-.056.123-.101.134-.134a.609.609 0 0 0 .05-.151 91.1 91.1 0 0 1 1.174-4.647l1.241-4.295c.134-.526.408-.788.822-.788h.101a.834.834 0 0 1 .554.336c.145.179.224.408.235.688v3.892l-.017 1.057c0 .828.011 1.65.034 2.466.034.805.073 1.622.117 2.449.056.906.101 1.857.134 2.852s.067 1.946.101 2.852c.022.347.039.688.05 1.023l.067 1.04.067.755c.022.257.067.515.134.772l.034.218a.72.72 0 0 1-.201.503.822.822 0 0 1-.47.302.806.806 0 0 1-.185.017.666.666 0 0 1-.436-.168.904.904 0 0 1-.302-.436 2.303 2.303 0 0 1-.101-.369l-.034-.352a552.861 552.861 0 0 1-.336-6.56 469.582 469.582 0 0 1-.218-6.576 1.393 1.393 0 0 0-.084-.302 5.205 5.205 0 0 0-.336.956 208.089 208.089 0 0 0-.755 3.154c-.157.716-.313 1.443-.47 2.181-.034.123-.067.252-.101.386s-.078.263-.134.386a.76.76 0 0 1-.671.42c-.257 0-.47-.117-.638-.352a1.017 1.017 0 0 1-.151-.285l-.101-.336c-.313-.995-.638-1.98-.973-2.953a43.787 43.787 0 0 1-.906-3.003 1.204 1.204 0 0 1-.05-.151c0-.056-.028-.101-.084-.134h-.034c-.034 0-.05.022-.05.067l-.034 1.241v1.225c0 .638.022 1.264.067 1.879s.067 1.241.067 1.879c0 1.957.05 3.898.151 5.822.011.19.017.386.017.587.011.201.028.403.05.604l.017.185c0 .291-.078.509-.235.654-.145.145-.375.24-.688.285-.481.056-.962.078-1.443.067-.481 0-.962.011-1.443.034h-.05zM81.553 15.39c-.145 0-.235.067-.268.201-.034.123-.05.358-.05.705-.011.816-.017 1.611-.017 2.382v1.946l-.034 1.963-.034 2.265-.017.721c0 .212.061.319.185.319l.084-.017.168-.067a.91.91 0 0 0 .185-.05c.28-.168.52-.397.721-.688.201-.28.352-.654.453-1.124a19.74 19.74 0 0 0 .436-3.674v-.252a2.94 2.94 0 0 0 .017-.319v-.168a.87.87 0 0 0-.017-.168l-.05-.671a9.288 9.288 0 0 0-.084-.939c-.045-.57-.162-1.051-.352-1.443s-.481-.66-.872-.805l-.067-.034c-.011-.011-.028-.017-.05-.017-.078-.022-.145-.039-.201-.05s-.101-.017-.134-.017zm-4.815-9.127h.101l.973.034c.324 0 .649.011.973.034l.235.034a.83.83 0 0 1 .235.034c.403.112.604.386.604.822l-.067 1.51a8.754 8.754 0 0 0-.017.537v1.745c.011.403.017.8.017 1.191v1.325c0 .168.022.268.067.302.056.034.185.05.386.05.559.011 1.051.117 1.476.319.425.19.783.442 1.074.755.302.313.542.671.721 1.074.179.391.302.794.369 1.208.045.324.089.643.134.956s.073.582.084.805c.022.291.034.526.034.705v.537a17.31 17.31 0 0 1-.671 4.127c-.28.939-.716 1.655-1.309 2.147-.582.492-1.303.794-2.164.906l-.604.034h-1.208l-1.124.017-.57-.017c-.425-.034-.716-.145-.872-.336-.157-.179-.24-.503-.252-.973v-.268c.022-.615.039-1.23.05-1.845 0-.615.011-1.23.034-1.845.011-.559.017-1.113.017-1.661.011-.559.017-1.124.017-1.694V11.92l.034-2.298c.011-.772.034-1.515.067-2.231.011-.626.291-.99.839-1.091a.87.87 0 0 1 .168-.017.792.792 0 0 1 .151-.017zm8.825 21.189a.359.359 0 0 1-.185-.05 1.929 1.929 0 0 1-.151-.084c-.201-.123-.308-.419-.319-.889a718.915 718.915 0 0 1-.117-4.916c-.034-1.633-.05-3.277-.05-4.932v-1.862l.034-1.963c.022-.872.034-1.734.034-2.584s.006-1.711.017-2.584c0-.503.039-.85.117-1.04.089-.19.246-.285.47-.285l1.007.084c.168.034.28.123.336.268.067.145.101.397.101.755v1.845c.011.459.017.917.017 1.376 0 .123-.006.324-.017.604 0 .28-.006.604-.017.973 0 .369-.006.761-.017 1.174s-.017.816-.017 1.208c0 .391-.006.749-.017 1.074v2.131l.034 1.342v2.366c0 .593.011 1.18.034 1.762.034.582.061 1.174.084 1.778.011.302.017.604.017.906v.503c-.022.604-.173.928-.453.973a6.81 6.81 0 0 1-.94.067z" style="fill:var(--color2, #fda3c4)"/>
      <path fill="#1f1f1f" d="M2.765 26.602h-1.01v2.291H.761v-5.437h.994v2.276h1.041l1.561-2.276h1.072l-1.856 2.633 1.926 2.804H4.357l-1.592-2.291zm5.921 2.369a3.129 3.129 0 0 1-1.499-.357 2.711 2.711 0 0 1-1.049-1.002c-.254-.43-.381-.909-.381-1.437s.127-1.005.381-1.429c.254-.43.603-.764 1.049-1.002.445-.243.945-.365 1.499-.365s1.054.122 1.499.365c.445.238.795.57 1.049.994s.381.904.381 1.437-.127 1.012-.381 1.437-.603.759-1.049 1.002a3.129 3.129 0 0 1-1.499.357zm0-.886c.362 0 .689-.08.979-.241.29-.166.518-.394.684-.683.166-.295.249-.624.249-.986s-.083-.689-.249-.979a1.728 1.728 0 0 0-.684-.683c-.29-.166-.616-.249-.979-.249s-.689.083-.979.249c-.29.161-.518.388-.684.683-.166.29-.249.616-.249.979s.083.691.249.986c.166.29.394.518.684.683.29.161.616.241.979.241zm6.545.886a3.11 3.11 0 0 1-1.491-.357 2.724 2.724 0 0 1-1.041-1.002c-.249-.425-.373-.904-.373-1.437s.127-1.012.381-1.437a2.668 2.668 0 0 1 1.041-.994 3.06 3.06 0 0 1 1.491-.365c.445 0 .852.078 1.219.233s.678.381.932.676l-.652.614a1.902 1.902 0 0 0-1.452-.637c-.373 0-.707.083-1.002.249-.295.161-.526.386-.691.676s-.249.619-.249.986c0 .368.083.696.249.986s.396.518.691.683c.295.161.629.241 1.002.241a1.89 1.89 0 0 0 1.452-.645l.652.621c-.254.295-.567.52-.94.676a3.109 3.109 0 0 1-1.219.233zm6.982-4.66h-1.802v4.583h-1.002v-4.583h-1.794v-.854h4.598v.854zm5.523-.932c.533 0 1.012.122 1.437.365.43.238.766.57 1.01.994s.365.904.365 1.437-.122 1.012-.365 1.437-.58.759-1.01 1.002a2.89 2.89 0 0 1-1.437.357c-.487 0-.932-.101-1.336-.303a2.672 2.672 0 0 1-1.46-2.082h-.854v2.307h-.994v-5.437h.994v2.229h.87c.072-.451.236-.849.489-1.196.259-.352.585-.624.979-.816a2.922 2.922 0 0 1 1.313-.295zm0 4.706c.337 0 .642-.08.916-.241s.489-.386.645-.676c.155-.29.233-.621.233-.994s-.078-.704-.233-.994c-.155-.29-.37-.515-.645-.676s-.58-.241-.916-.241c-.337 0-.642.08-.916.241a1.772 1.772 0 0 0-.645.676c-.155.29-.233.621-.233.994s.078.704.233.994c.161.29.375.515.645.676.274.161.58.241.916.241zm8.936.808-.008-3.604-1.786 2.983h-.45l-1.786-2.936v3.557h-.955v-5.437h.831l2.151 3.596 2.128-3.596h.823l.016 5.437h-.963zm4.993-3.596c.652 0 1.152.148 1.499.443.352.29.528.722.528 1.297 0 .601-.192 1.061-.575 1.383-.383.316-.922.474-1.616.474h-2.338v-5.437h.994v1.841h1.507zm-.21 2.819c.394 0 .697-.091.909-.272s.318-.445.318-.792c0-.658-.409-.986-1.227-.986h-1.297v2.05h1.297zm3.022-4.66h.994v5.437h-.994v-5.437zm7.1 4.979c.141-1.077.334-2.242 1.144-3.059.686-.695 1.724-1.06 2.675-.678 1.073.434 1.513 1.512 2.076 2.416.334.539.967 1.303 1.724 1.147.51-.122.721-.643.88-1.077.281-.712.457-1.512 1.056-2.051.669-.591 1.619-.521 2.323-.017.95.66 1.214 1.79 2.006 2.589.563.556 1.249.504 1.795-.07.44-.487.563-1.13.897-1.686.546-.904 1.636-1.112 2.551-.556 1.073.678 1.196 2.033.968 3.145-.088.452-.844.348-.827-.104 0-.521.053-1.077-.123-1.581-.229-.643-1.038-1.164-1.601-.573-.317.33-.405.852-.616 1.251a3.385 3.385 0 0 1-.898 1.095c-1.601 1.199-2.956-.278-3.73-1.581-.423-.712-1.513-2.085-2.27-.938-.405.591-.493 1.355-.827 1.981-.827 1.581-2.604 1.355-3.678.122-.686-.782-1.021-2.277-2.111-2.641-1.689-.539-2.252 1.755-2.393 2.867-.123.591-1.091.608-1.021 0z" style="fill:var(--color4, #1f1f1f)"/>
    </symbol>
    <symbol id="icon-top" viewBox="0 0 80 32">
      <path fill="#fda3c4" d="M2.778 22.3.925 19.054.319 6.345C1.342 4.58 4.813 1.002 10.516.808c7.129-.242 15.643-1.09 23.808-.63s16.792.674 19.667.789c2.874.115 14.537.187 18.248 2.318 2.969 1.705 5.634 4.851 6.596 6.211-.312.252-.765 1.053-.08 2.243s1.004 2.991 1.078 3.743c-.419.424-1.261 1.376-1.276 1.799-.019.528-2.747.55-1.409 1.265 1.07.572 1.288 2.122 1.263 2.825-1.083.617-3.733 1.859-5.673 1.887s-3.651.426-4.264.622l-.038 1.056c.901.212 2.521.682 1.787.864-.917.227-1.801-.469-2.572-.103s-1.858 1.115-.959 1.415c.27.254.539.387.782.444.302-.051.629-.09.873-.113-.159.102-.484.204-.873.113-.514.087-.958.209-.81.348.235.221 1.192.576 1.64.726l.728.822-2.421-.097c-1.331-.053-1.087.749-.799 1.157-.356.074-1.278.16-2.118-.085-1.049-.306-.61.108-2.43.167-1.456.047-6.759-.227-9.228-.37.208-.168.352-.514-.737-.558-1.362-.055-1.513-.061-3.186.136s-13.313-.534-18.456-.741l-7.413-.297c-2.386.345-8.034.973-11.54.726-4.382-.308-8.117-1.779-8.113-1.911.004-.106-.777-.868-1.168-1.236.396.236 1.191.576 1.21.049s-.733-2.099-1.111-2.819l1.257-1.271zm2.606 7.636c-.484-.019-.523.508-.482.773l-.988.092c-.495.421-1.393 1.239-1.026 1.148s1.073-.353 1.38-.473c.208-.168 1.592-.465 5.465-.309 4.841.194 4.397-.088 4.85-.07s-8.595-1.138-9.2-1.162z" style="fill:var(--color2, #fda3c4)"/>
    </symbol>
    <symbol id="icon-t-short" viewBox="0 0 132 32">
      <path fill="#fda3c4" d="m4.496 22.205-2.971-3.272L.342 6.245C1.917 4.504 7.306 1.002 16.265.917 27.463.811 40.827.128 53.665.743s32.426.982 36.945 1.152c4.518.17 22.847.464 28.717 2.66 4.696 1.757 8.941 4.946 10.477 6.32-.486.245-1.183 1.035-.085 2.236s1.632 3.003 1.762 3.754c-.651.415-1.957 1.349-1.973 1.77-.02.526-4.306.497-2.191 1.235a2.971 2.971 0 0 1 2.035 2.842c-1.69.595-5.832 1.783-8.88 1.773s-5.73.355-6.689.539l-.04 1.052c1.42.229 3.974.729 2.824.896-1.437.209-2.838-.502-4.043-.152s-2.899 1.076-1.482 1.393c.429.259.854.396 1.236.457.474-.045.986-.078 1.37-.096-.248.099-.756.195-1.37.096-.806.077-1.501.19-1.267.332.372.225 1.883.598 2.591.756l1.159.834-3.805-.143c-2.093-.079-1.695.726-1.235 1.139-.558.067-2.006.135-3.329-.125-1.655-.326-.957.096-3.816.12-2.287.019-10.625-.356-14.508-.545.324-.163.543-.506-1.169-.571-2.141-.08-2.378-.089-5.005.075s-26.955-.776-35.042-1.08l-11.654-.438c-3.743.298-12.607.817-18.121.504-6.892-.391-12.788-1.929-12.783-2.061.004-.105-1.237-.881-1.857-1.255.626.243 1.883.598 1.903.072s-1.19-2.108-1.797-2.833l1.953-1.244zm4.233 7.666c-.761-.029-.813.496-.744.762l-1.551.073c-.77.41-2.166 1.209-1.591 1.125s1.68-.332 2.161-.446c.324-.163 2.494-.433 8.582-.204 7.611.286 6.907-.004 7.621.023S9.681 29.905 8.729 29.869z" style="fill:var(--color2, #fda3c4)"/>
    </symbol>
    <symbol id="icon-volna" viewBox="0 0 137 32">
      <path d="M.474 26.532c.948-7.348 2.252-15.289 7.704-20.859C12.8.932 19.793-1.557 26.193 1.051c7.23 2.963 10.193 10.311 13.985 16.474 2.252 3.674 6.518 8.889 11.615 7.822 3.437-.83 4.859-4.385 5.926-7.348C59.615 13.14 60.8 7.688 64.83 4.014c4.504-4.03 10.904-3.556 15.644-.118 6.4 4.504 8.178 12.207 13.511 17.659 3.793 3.793 8.415 3.437 12.089-.474 2.963-3.319 3.793-7.704 6.045-11.496 3.674-6.163 11.023-7.585 17.186-3.793 7.23 4.622 8.059 13.867 6.519 21.452-.593 3.081-5.689 2.37-5.57-.711 0-3.556.356-7.348-.83-10.785-1.541-4.385-6.993-7.941-10.785-3.911-2.134 2.252-2.726 5.807-4.149 8.533-1.422 2.844-3.556 5.452-6.045 7.467-10.785 8.178-19.911-1.896-25.126-10.785-2.844-4.859-10.193-14.222-15.289-6.4-2.726 4.03-3.319 9.244-5.57 13.511-5.57 10.785-17.541 9.244-24.77.83-4.622-5.333-6.874-15.526-14.222-18.015C12.09 3.304 8.298 18.948 7.35 26.534c-.83 4.03-7.348 4.148-6.874 0z"/>
    </symbol>
  </defs>
</svg>
